<?xml version="1.0" encoding="UTF-8" standalone="no"?>
<svg
   xmlns:dc="http://purl.org/dc/elements/1.1/"
   xmlns:cc="http://creativecommons.org/ns#"
   xmlns:rdf="http://www.w3.org/1999/02/22-rdf-syntax-ns#"
   xmlns:svg="http://www.w3.org/2000/svg"
   xmlns="http://www.w3.org/2000/svg"
   xmlns:sodipodi="http://sodipodi.sourceforge.net/DTD/sodipodi-0.dtd"
   xmlns:inkscape="http://www.inkscape.org/namespaces/inkscape"
   id="svg2"
   version="1.1"
   inkscape:version="0.48.2 r9819"
   width="10"
   height="10"
   x-ratio="0.08"
   y-ratio="0.08"
   sodipodi:docname="AgileEngine-logo.svg">
    <path
       sodipodi:nodetypes="cccccccccccc"
       inkscape:connector-curvature="0"
       id="path3009-4"
       d="M 144.05957,2.282018 C 104.71443,7.210079 73.106503,30.652272 54.932252,55.481185 C 47.740626,58.235675 37.559979,61.308655 37.559979,61.308655 L 13.20103,99.65717 L 32.650424,94.957597 L 27.552039,107.17649 L 37.559979,117.51554 L 51.3445,112.81597 L 44.546655,132.55418 L 85.144901,107.74043 C 85.144901,107.74043 88.64405,96.237546 90.80977,90.63399 C 121.41325,67.866639 139.37104,36.722514 144.05957,2.282018 z"
       style="fill:#ec9400;fill-opacity:1;stroke:#000000;stroke-width:0.96463621px;stroke-linecap:butt;stroke-linejoin:miter;stroke-opacity:1" />
    <path
       id="path2987-0"
       d="M 105.53844,45.988048 C 105.53844,48.946921 103.04446,51.345561 99.967977,51.345561 C 96.891498,51.345561 94.397529,48.946921 94.397529,45.988048 C 94.397529,43.029176 96.891498,40.630535 99.967977,40.630535 C 103.04446,40.630535 105.53844,43.029176 105.53844,45.988048 z"
       style="fill:#ffffff;stroke:#000000;stroke-width:0.96463621"
       inkscape:connector-curvature="0" />
    <path
       id="path2987-1-9"
       d="M 88.638235,61.68462 C 88.638235,64.643493 86.144256,67.042133 83.067777,67.042133 C 79.991297,67.042133 77.497328,64.643493 77.497328,61.68462 C 77.497328,58.725748 79.991297,56.327107 83.067777,56.327107 C 86.144256,56.327107 88.638235,58.725748 88.638235,61.68462 z"
       style="fill:#ffffff;stroke:#000000;stroke-width:0.96463621"
       inkscape:connector-curvature="0" />
    <path
       sodipodi:nodetypes="cssc"
       inkscape:connector-curvature="0"
       id="path3017-4"
       d="M 2.8154329,141.57736 C 5.6567803,132.3466 9.9984404,119.43557 18.488245,114.13185 C 27.534425,108.48056 36.632267,116.774 30.762133,125.97478 C 25.117948,134.82141 13.894867,139.10507 2.8154329,141.57736 z"
       style="fill:#ec9400;fill-opacity:1;stroke:#000000;stroke-width:0.96463621px;stroke-linecap:butt;stroke-linejoin:miter;stroke-opacity:1" />
</svg>