  0
SECTION
  2
HEADER
  9
$ACADVER
  1
AC1009
  9
$ANGDIR
  70
0
  9
$CECOLOR
  62
256
  9
$CELTYPE
  6
BYLAYER
  9
$EXTMIN
  10
0.0
  20
0.0
  9
$EXTMAX
  10
1.7614
  20
1.0906
  9
$FILLMODE
  70
1
  9
$MIRRTEXT
  70
0
  0
ENDSEC
  0
SECTION
  2
TABLES
  0
TABLE
  2
LAYER
  70
17
  0
LAYER
  2
Top
  70
64
  62
5
  6
CONTINUOUS
  0
ENDTAB
  0
ENDSEC
  0
SECTION
  2
ENTITIES
  0
SOLID
  8
Top
  10
1.4268
  20
0.5413
  11
1.4661
  21
0.5413
  12
1.4268
  22
0.498
  13
1.4661
  23
0.498
  0
SOLID
  8
Top
  10
1.4268
  20
0.6083
  11
1.4661
  21
0.6083
  12
1.4268
  22
0.565
  13
1.4661
  23
0.565
  0
SOLID
  8
Top
  10
1.5815
  20
0.7154
  11
1.6484
  21
0.7154
  12
1.5815
  22
0.6484
  13
1.6484
  23
0.6484
  0
POLYLINE
  8
Top
  6
CONTINUOUS
  66
1
  70
0
  40
0.0335
  41
0.0335
  0
VERTEX
  8
Top
  10
1.6317
  20
0.7819
  42
1
  0
VERTEX
  8
Top
  10
1.5982
  20
0.7819
  42
1
  0
VERTEX
  8
Top
  10
1.6317
  20
0.7819
  42
1
  0
SEQEND
  0
POLYLINE
  8
Top
  6
CONTINUOUS
  66
1
  70
0
  40
0.0335
  41
0.0335
  0
VERTEX
  8
Top
  10
1.6317
  20
0.8819
  42
1
  0
VERTEX
  8
Top
  10
1.5982
  20
0.8819
  42
1
  0
VERTEX
  8
Top
  10
1.6317
  20
0.8819
  42
1
  0
SEQEND
  0
POLYLINE
  8
Top
  6
CONTINUOUS
  66
1
  70
0
  40
0.0335
  41
0.0335
  0
VERTEX
  8
Top
  10
1.6317
  20
0.9819
  42
1
  0
VERTEX
  8
Top
  10
1.5982
  20
0.9819
  42
1
  0
VERTEX
  8
Top
  10
1.6317
  20
0.9819
  42
1
  0
SEQEND
  0
SOLID
  8
Top
  10
1.5862
  20
0.4744
  11
1.6531
  21
0.4744
  12
1.5862
  22
0.4075
  13
1.6531
  23
0.4075
  0
POLYLINE
  8
Top
  6
CONTINUOUS
  66
1
  70
0
  40
0.0335
  41
0.0335
  0
VERTEX
  8
Top
  10
1.6364
  20
0.3409
  42
1
  0
VERTEX
  8
Top
  10
1.603
  20
0.3409
  42
1
  0
VERTEX
  8
Top
  10
1.6364
  20
0.3409
  42
1
  0
SEQEND
  0
POLYLINE
  8
Top
  6
CONTINUOUS
  66
1
  70
0
  40
0.0335
  41
0.0335
  0
VERTEX
  8
Top
  10
1.6364
  20
0.2409
  42
1
  0
VERTEX
  8
Top
  10
1.603
  20
0.2409
  42
1
  0
VERTEX
  8
Top
  10
1.6364
  20
0.2409
  42
1
  0
SEQEND
  0
POLYLINE
  8
Top
  6
CONTINUOUS
  66
1
  70
0
  40
0.0335
  41
0.0335
  0
VERTEX
  8
Top
  10
1.6364
  20
0.1409
  42
1
  0
VERTEX
  8
Top
  10
1.603
  20
0.1409
  42
1
  0
VERTEX
  8
Top
  10
1.6364
  20
0.1409
  42
1
  0
SEQEND
  0
SOLID
  8
Top
  10
1.3618
  20
0.1398
  11
1.4287
  21
0.1398
  12
1.3618
  22
0.0728
  13
1.4287
  23
0.0728
  0
POLYLINE
  8
Top
  6
CONTINUOUS
  66
1
  70
0
  40
0.0335
  41
0.0335
  0
VERTEX
  8
Top
  10
1.312
  20
0.1063
  42
1
  0
VERTEX
  8
Top
  10
1.2785
  20
0.1063
  42
1
  0
VERTEX
  8
Top
  10
1.312
  20
0.1063
  42
1
  0
SEQEND
  0
POLYLINE
  8
Top
  6
CONTINUOUS
  66
1
  70
0
  40
0.0335
  41
0.0335
  0
VERTEX
  8
Top
  10
1.212
  20
0.1063
  42
1
  0
VERTEX
  8
Top
  10
1.1785
  20
0.1063
  42
1
  0
VERTEX
  8
Top
  10
1.212
  20
0.1063
  42
1
  0
SEQEND
  0
POLYLINE
  8
Top
  6
CONTINUOUS
  66
1
  70
0
  40
0.0335
  41
0.0335
  0
VERTEX
  8
Top
  10
1.112
  20
0.1063
  42
1
  0
VERTEX
  8
Top
  10
1.0785
  20
0.1063
  42
1
  0
VERTEX
  8
Top
  10
1.112
  20
0.1063
  42
1
  0
SEQEND
  0
SOLID
  8
Top
  10
1.3618
  20
0.3327
  11
1.4209
  21
0.3327
  12
1.3618
  22
0.2736
  13
1.4209
  23
0.2736
  0
SOLID
  8
Top
  10
0.2083
  20
0.2028
  11
0.2752
  21
0.2028
  12
0.2083
  22
0.1358
  13
0.2752
  23
0.1358
  0
POLYLINE
  8
Top
  6
CONTINUOUS
  66
1
  70
0
  40
0.0335
  41
0.0335
  0
VERTEX
  8
Top
  10
0.3585
  20
0.1693
  42
1
  0
VERTEX
  8
Top
  10
0.325
  20
0.1693
  42
1
  0
VERTEX
  8
Top
  10
0.3585
  20
0.1693
  42
1
  0
SEQEND
  0
SOLID
  8
Top
  10
0.7909
  20
0.7028
  11
0.8421
  21
0.7028
  12
0.7909
  22
0.6437
  13
0.8421
  23
0.6437
  0
SOLID
  8
Top
  10
0.8657
  20
0.7028
  11
0.9169
  21
0.7028
  12
0.8657
  22
0.6437
  13
0.9169
  23
0.6437
  0
SOLID
  8
Top
  10
0.815
  20
0.3992
  11
0.874
  21
0.3992
  12
0.815
  22
0.348
  13
0.874
  23
0.348
  0
SOLID
  8
Top
  10
0.815
  20
0.474
  11
0.874
  21
0.474
  12
0.815
  22
0.4228
  13
0.874
  23
0.4228
  0
POLYLINE
  8
Top
  6
CONTINUOUS
  66
1
  70
0
  40
0.02
  41
0.02
  0
VERTEX
  8
Top
  10
1.5313
  20
0.6063
  42
1
  0
VERTEX
  8
Top
  10
1.5113
  20
0.6063
  42
1
  0
VERTEX
  8
Top
  10
1.5313
  20
0.6063
  42
1
  0
SEQEND
  0
POLYLINE
  8
Top
  6
CONTINUOUS
  66
1
  70
0
  40
0.02
  41
0.02
  0
VERTEX
  8
Top
  10
1.4565
  20
0.6654
  42
1
  0
VERTEX
  8
Top
  10
1.4365
  20
0.6654
  42
1
  0
VERTEX
  8
Top
  10
1.4565
  20
0.6654
  42
1
  0
SEQEND
  0
SOLID
  8
Top
  10
0.0665
  20
0.7224
  11
0.1335
  21
0.7224
  12
0.0665
  22
0.6555
  13
0.1335
  23
0.6555
  0
POLYLINE
  8
Top
  6
CONTINUOUS
  66
1
  70
0
  40
0.0335
  41
0.0335
  0
VERTEX
  8
Top
  10
0.1167
  20
0.589
  42
1
  0
VERTEX
  8
Top
  10
0.0833
  20
0.589
  42
1
  0
VERTEX
  8
Top
  10
0.1167
  20
0.589
  42
1
  0
SEQEND
  0
POLYLINE
  8
Top
  6
CONTINUOUS
  66
1
  70
0
  40
0.0335
  41
0.0335
  0
VERTEX
  8
Top
  10
0.1167
  20
0.489
  42
1
  0
VERTEX
  8
Top
  10
0.0833
  20
0.489
  42
1
  0
VERTEX
  8
Top
  10
0.1167
  20
0.489
  42
1
  0
SEQEND
  0
POLYLINE
  8
Top
  6
CONTINUOUS
  66
1
  70
0
  40
0.0335
  41
0.0335
  0
VERTEX
  8
Top
  10
0.1167
  20
0.389
  42
1
  0
VERTEX
  8
Top
  10
0.0833
  20
0.389
  42
1
  0
VERTEX
  8
Top
  10
0.1167
  20
0.389
  42
1
  0
SEQEND
  0
SOLID
  8
Top
  10
1.0921
  20
0.4291
  11
1.1079
  21
0.4291
  12
1.0921
  22
0.3583
  13
1.1079
  23
0.3583
  0
SOLID
  8
Top
  10
1.1177
  20
0.4291
  11
1.1335
  21
0.4291
  12
1.1177
  22
0.3583
  13
1.1335
  23
0.3583
  0
SOLID
  8
Top
  10
1.1433
  20
0.4291
  11
1.1591
  21
0.4291
  12
1.1433
  22
0.3583
  13
1.1591
  23
0.3583
  0
SOLID
  8
Top
  10
1.1689
  20
0.4291
  11
1.1846
  21
0.4291
  12
1.1689
  22
0.3583
  13
1.1846
  23
0.3583
  0
SOLID
  8
Top
  10
1.1945
  20
0.4291
  11
1.2102
  21
0.4291
  12
1.1945
  22
0.3583
  13
1.2102
  23
0.3583
  0
SOLID
  8
Top
  10
1.2201
  20
0.4291
  11
1.2358
  21
0.4291
  12
1.2201
  22
0.3583
  13
1.2358
  23
0.3583
  0
SOLID
  8
Top
  10
1.2457
  20
0.4291
  11
1.2614
  21
0.4291
  12
1.2457
  22
0.3583
  13
1.2614
  23
0.3583
  0
SOLID
  8
Top
  10
1.2713
  20
0.4291
  11
1.287
  21
0.4291
  12
1.2713
  22
0.3583
  13
1.287
  23
0.3583
  0
SOLID
  8
Top
  10
1.2969
  20
0.4291
  11
1.3126
  21
0.4291
  12
1.2969
  22
0.3583
  13
1.3126
  23
0.3583
  0
SOLID
  8
Top
  10
1.3224
  20
0.4291
  11
1.3382
  21
0.4291
  12
1.3224
  22
0.3583
  13
1.3382
  23
0.3583
  0
SOLID
  8
Top
  10
1.3224
  20
0.6575
  11
1.3382
  21
0.6575
  12
1.3224
  22
0.5866
  13
1.3382
  23
0.5866
  0
SOLID
  8
Top
  10
1.2969
  20
0.6575
  11
1.3126
  21
0.6575
  12
1.2969
  22
0.5866
  13
1.3126
  23
0.5866
  0
SOLID
  8
Top
  10
1.2713
  20
0.6575
  11
1.287
  21
0.6575
  12
1.2713
  22
0.5866
  13
1.287
  23
0.5866
  0
SOLID
  8
Top
  10
1.2457
  20
0.6575
  11
1.2614
  21
0.6575
  12
1.2457
  22
0.5866
  13
1.2614
  23
0.5866
  0
SOLID
  8
Top
  10
1.2201
  20
0.6575
  11
1.2358
  21
0.6575
  12
1.2201
  22
0.5866
  13
1.2358
  23
0.5866
  0
SOLID
  8
Top
  10
1.1945
  20
0.6575
  11
1.2102
  21
0.6575
  12
1.1945
  22
0.5866
  13
1.2102
  23
0.5866
  0
SOLID
  8
Top
  10
1.1689
  20
0.6575
  11
1.1846
  21
0.6575
  12
1.1689
  22
0.5866
  13
1.1846
  23
0.5866
  0
SOLID
  8
Top
  10
1.1433
  20
0.6575
  11
1.1591
  21
0.6575
  12
1.1433
  22
0.5866
  13
1.1591
  23
0.5866
  0
SOLID
  8
Top
  10
1.1177
  20
0.6575
  11
1.1335
  21
0.6575
  12
1.1177
  22
0.5866
  13
1.1335
  23
0.5866
  0
SOLID
  8
Top
  10
1.0921
  20
0.6575
  11
1.1079
  21
0.6575
  12
1.0921
  22
0.5866
  13
1.1079
  23
0.5866
  0
SOLID
  8
Top
  10
0.4012
  20
0.9004
  11
0.4602
  21
0.9004
  12
0.4012
  22
0.8413
  13
0.4602
  23
0.8413
  0
POLYLINE
  8
Top
  6
CONTINUOUS
  66
1
  70
0
  40
0.0295
  41
0.0295
  0
VERTEX
  8
Top
  10
0.4455
  20
0.7709
  42
1
  0
VERTEX
  8
Top
  10
0.4159
  20
0.7709
  42
1
  0
VERTEX
  8
Top
  10
0.4455
  20
0.7709
  42
1
  0
SEQEND
  0
POLYLINE
  8
Top
  6
CONTINUOUS
  66
1
  70
0
  40
0.0295
  41
0.0295
  0
VERTEX
  8
Top
  10
0.4455
  20
0.6709
  42
1
  0
VERTEX
  8
Top
  10
0.4159
  20
0.6709
  42
1
  0
VERTEX
  8
Top
  10
0.4455
  20
0.6709
  42
1
  0
SEQEND
  0
POLYLINE
  8
Top
  6
CONTINUOUS
  66
1
  70
0
  40
0.0295
  41
0.0295
  0
VERTEX
  8
Top
  10
0.4455
  20
0.5709
  42
1
  0
VERTEX
  8
Top
  10
0.4159
  20
0.5709
  42
1
  0
VERTEX
  8
Top
  10
0.4455
  20
0.5709
  42
1
  0
SEQEND
  0
POLYLINE
  8
Top
  6
CONTINUOUS
  66
1
  70
0
  40
0.0295
  41
0.0295
  0
VERTEX
  8
Top
  10
0.4455
  20
0.4709
  42
1
  0
VERTEX
  8
Top
  10
0.4159
  20
0.4709
  42
1
  0
VERTEX
  8
Top
  10
0.4455
  20
0.4709
  42
1
  0
SEQEND
  0
POLYLINE
  8
Top
  6
CONTINUOUS
  66
1
  70
0
  40
0.0295
  41
0.0295
  0
VERTEX
  8
Top
  10
0.4455
  20
0.3709
  42
1
  0
VERTEX
  8
Top
  10
0.4159
  20
0.3709
  42
1
  0
VERTEX
  8
Top
  10
0.4455
  20
0.3709
  42
1
  0
SEQEND
  0
POLYLINE
  8
Top
  6
CONTINUOUS
  66
1
  70
0
  40
0.0295
  41
0.0295
  0
VERTEX
  8
Top
  10
0.4455
  20
0.2709
  42
1
  0
VERTEX
  8
Top
  10
0.4159
  20
0.2709
  42
1
  0
VERTEX
  8
Top
  10
0.4455
  20
0.2709
  42
1
  0
SEQEND
  0
POLYLINE
  8
Top
  6
CONTINUOUS
  66
1
  70
0
  40
0.0295
  41
0.0295
  0
VERTEX
  8
Top
  10
0.4455
  20
0.1709
  42
1
  0
VERTEX
  8
Top
  10
0.4159
  20
0.1709
  42
1
  0
VERTEX
  8
Top
  10
0.4455
  20
0.1709
  42
1
  0
SEQEND
  0
POLYLINE
  8
Top
  6
CONTINUOUS
  66
1
  70
0
  40
0.0295
  41
0.0295
  0
VERTEX
  8
Top
  10
0.7455
  20
0.1709
  42
1
  0
VERTEX
  8
Top
  10
0.7159
  20
0.1709
  42
1
  0
VERTEX
  8
Top
  10
0.7455
  20
0.1709
  42
1
  0
SEQEND
  0
POLYLINE
  8
Top
  6
CONTINUOUS
  66
1
  70
0
  40
0.0295
  41
0.0295
  0
VERTEX
  8
Top
  10
0.7455
  20
0.2709
  42
1
  0
VERTEX
  8
Top
  10
0.7159
  20
0.2709
  42
1
  0
VERTEX
  8
Top
  10
0.7455
  20
0.2709
  42
1
  0
SEQEND
  0
POLYLINE
  8
Top
  6
CONTINUOUS
  66
1
  70
0
  40
0.0295
  41
0.0295
  0
VERTEX
  8
Top
  10
0.7455
  20
0.3709
  42
1
  0
VERTEX
  8
Top
  10
0.7159
  20
0.3709
  42
1
  0
VERTEX
  8
Top
  10
0.7455
  20
0.3709
  42
1
  0
SEQEND
  0
POLYLINE
  8
Top
  6
CONTINUOUS
  66
1
  70
0
  40
0.0295
  41
0.0295
  0
VERTEX
  8
Top
  10
0.7455
  20
0.4709
  42
1
  0
VERTEX
  8
Top
  10
0.7159
  20
0.4709
  42
1
  0
VERTEX
  8
Top
  10
0.7455
  20
0.4709
  42
1
  0
SEQEND
  0
POLYLINE
  8
Top
  6
CONTINUOUS
  66
1
  70
0
  40
0.0295
  41
0.0295
  0
VERTEX
  8
Top
  10
0.7455
  20
0.5709
  42
1
  0
VERTEX
  8
Top
  10
0.7159
  20
0.5709
  42
1
  0
VERTEX
  8
Top
  10
0.7455
  20
0.5709
  42
1
  0
SEQEND
  0
POLYLINE
  8
Top
  6
CONTINUOUS
  66
1
  70
0
  40
0.0295
  41
0.0295
  0
VERTEX
  8
Top
  10
0.7455
  20
0.6709
  42
1
  0
VERTEX
  8
Top
  10
0.7159
  20
0.6709
  42
1
  0
VERTEX
  8
Top
  10
0.7455
  20
0.6709
  42
1
  0
SEQEND
  0
POLYLINE
  8
Top
  6
CONTINUOUS
  66
1
  70
0
  40
0.0295
  41
0.0295
  0
VERTEX
  8
Top
  10
0.7455
  20
0.7709
  42
1
  0
VERTEX
  8
Top
  10
0.7159
  20
0.7709
  42
1
  0
VERTEX
  8
Top
  10
0.7455
  20
0.7709
  42
1
  0
SEQEND
  0
POLYLINE
  8
Top
  6
CONTINUOUS
  66
1
  70
0
  40
0.0295
  41
0.0295
  0
VERTEX
  8
Top
  10
0.7455
  20
0.8709
  42
1
  0
VERTEX
  8
Top
  10
0.7159
  20
0.8709
  42
1
  0
VERTEX
  8
Top
  10
0.7455
  20
0.8709
  42
1
  0
SEQEND
  0
SOLID
  8
Top
  10
1.413
  20
0.3327
  11
1.4642
  21
0.3327
  12
1.413
  22
0.2736
  13
1.4642
  23
0.2736
  0
SOLID
  8
Top
  10
1.4878
  20
0.3327
  11
1.539
  21
0.3327
  12
1.4878
  22
0.2736
  13
1.539
  23
0.2736
  0
SOLID
  8
Top
  10
1.4898
  20
0.7205
  11
1.5606
  21
0.7205
  12
1.4898
  22
0.6575
  13
1.5606
  23
0.6575
  0
SOLID
  8
Top
  10
1.4898
  20
0.8307
  11
1.5606
  21
0.8307
  12
1.4898
  22
0.7677
  13
1.5606
  23
0.7677
  0
SOLID
  8
Top
  10
1.665
  20
0.7264
  11
1.724
  21
0.7264
  12
1.665
  22
0.6752
  13
1.724
  23
0.6752
  0
SOLID
  8
Top
  10
1.665
  20
0.8012
  11
1.724
  21
0.8012
  12
1.665
  22
0.75
  13
1.724
  23
0.75
  0
SOLID
  8
Top
  10
0.3175
  20
0.3022
  11
0.3707
  21
0.3022
  12
0.3175
  22
0.249
  13
0.3707
  23
0.249
  0
POLYLINE
  8
Top
  6
CONTINUOUS
  66
1
  70
0
  40
0.0266
  41
0.0266
  0
VERTEX
  8
Top
  10
0.259
  20
0.2756
  42
1
  0
VERTEX
  8
Top
  10
0.2324
  20
0.2756
  42
1
  0
VERTEX
  8
Top
  10
0.259
  20
0.2756
  42
1
  0
SEQEND
  0
SOLID
  8
Top
  10
0.7752
  20
0.8957
  11
0.8421
  21
0.8957
  12
0.7752
  22
0.8287
  13
0.8421
  23
0.8287
  0
POLYLINE
  8
Top
  6
CONTINUOUS
  66
1
  70
0
  40
0.0335
  41
0.0335
  0
VERTEX
  8
Top
  10
0.9254
  20
0.8622
  42
1
  0
VERTEX
  8
Top
  10
0.8919
  20
0.8622
  42
1
  0
VERTEX
  8
Top
  10
0.9254
  20
0.8622
  42
1
  0
SEQEND
  0
POLYLINE
  8
Top
  6
CONTINUOUS
  66
1
  70
0
  40
0.0335
  41
0.0335
  0
VERTEX
  8
Top
  10
1.0254
  20
0.8622
  42
1
  0
VERTEX
  8
Top
  10
0.9919
  20
0.8622
  42
1
  0
VERTEX
  8
Top
  10
1.0254
  20
0.8622
  42
1
  0
SEQEND
  0
POLYLINE
  8
Top
  6
CONTINUOUS
  66
1
  70
0
  40
0.0335
  41
0.0335
  0
VERTEX
  8
Top
  10
1.1254
  20
0.8622
  42
1
  0
VERTEX
  8
Top
  10
1.0919
  20
0.8622
  42
1
  0
VERTEX
  8
Top
  10
1.1254
  20
0.8622
  42
1
  0
SEQEND
  0
POLYLINE
  8
Top
  6
CONTINUOUS
  66
1
  70
0
  40
0.013
  41
0.013
  0
VERTEX
  8
Top
  10
1.2535
  20
0.3937
  42
0
  0
VERTEX
  8
Top
  10
1.2535
  20
0.5512
  42
0
  0
SEQEND
  0
POLYLINE
  8
Top
  6
CONTINUOUS
  66
1
  70
0
  40
0.0065
  41
0.0065
  0
VERTEX
  8
Top
  10
1.2503
  20
0.3937
  42
1
  0
VERTEX
  8
Top
  10
1.2568
  20
0.3937
  42
1
  0
VERTEX
  8
Top
  10
1.2503
  20
0.3937
  42
1
  0
SEQEND
  0
POLYLINE
  8
Top
  6
CONTINUOUS
  66
1
  70
0
  40
0.0065
  41
0.0065
  0
VERTEX
  8
Top
  10
1.2503
  20
0.5512
  42
1
  0
VERTEX
  8
Top
  10
1.2568
  20
0.5512
  42
1
  0
VERTEX
  8
Top
  10
1.2503
  20
0.5512
  42
1
  0
SEQEND
  0
POLYLINE
  8
Top
  6
CONTINUOUS
  66
1
  70
0
  40
0.013
  41
0.013
  0
VERTEX
  8
Top
  10
1.2535
  20
0.5512
  42
0
  0
VERTEX
  8
Top
  10
1.3756
  20
0.5512
  42
0
  0
SEQEND
  0
POLYLINE
  8
Top
  6
CONTINUOUS
  66
1
  70
0
  40
0.0065
  41
0.0065
  0
VERTEX
  8
Top
  10
1.2503
  20
0.5512
  42
1
  0
VERTEX
  8
Top
  10
1.2568
  20
0.5512
  42
1
  0
VERTEX
  8
Top
  10
1.2503
  20
0.5512
  42
1
  0
SEQEND
  0
POLYLINE
  8
Top
  6
CONTINUOUS
  66
1
  70
0
  40
0.0065
  41
0.0065
  0
VERTEX
  8
Top
  10
1.3723
  20
0.5512
  42
1
  0
VERTEX
  8
Top
  10
1.3788
  20
0.5512
  42
1
  0
VERTEX
  8
Top
  10
1.3723
  20
0.5512
  42
1
  0
SEQEND
  0
POLYLINE
  8
Top
  6
CONTINUOUS
  66
1
  70
0
  40
0.013
  41
0.013
  0
VERTEX
  8
Top
  10
1.3756
  20
0.5512
  42
0
  0
VERTEX
  8
Top
  10
1.3756
  20
0.5866
  42
0
  0
SEQEND
  0
POLYLINE
  8
Top
  6
CONTINUOUS
  66
1
  70
0
  40
0.0065
  41
0.0065
  0
VERTEX
  8
Top
  10
1.3723
  20
0.5512
  42
1
  0
VERTEX
  8
Top
  10
1.3788
  20
0.5512
  42
1
  0
VERTEX
  8
Top
  10
1.3723
  20
0.5512
  42
1
  0
SEQEND
  0
POLYLINE
  8
Top
  6
CONTINUOUS
  66
1
  70
0
  40
0.0065
  41
0.0065
  0
VERTEX
  8
Top
  10
1.3723
  20
0.5866
  42
1
  0
VERTEX
  8
Top
  10
1.3788
  20
0.5866
  42
1
  0
VERTEX
  8
Top
  10
1.3723
  20
0.5866
  42
1
  0
SEQEND
  0
POLYLINE
  8
Top
  6
CONTINUOUS
  66
1
  70
0
  40
0.013
  41
0.013
  0
VERTEX
  8
Top
  10
1.3756
  20
0.5866
  42
0
  0
VERTEX
  8
Top
  10
1.4465
  20
0.5866
  42
0
  0
SEQEND
  0
POLYLINE
  8
Top
  6
CONTINUOUS
  66
1
  70
0
  40
0.0065
  41
0.0065
  0
VERTEX
  8
Top
  10
1.3723
  20
0.5866
  42
1
  0
VERTEX
  8
Top
  10
1.3788
  20
0.5866
  42
1
  0
VERTEX
  8
Top
  10
1.3723
  20
0.5866
  42
1
  0
SEQEND
  0
POLYLINE
  8
Top
  6
CONTINUOUS
  66
1
  70
0
  40
0.0065
  41
0.0065
  0
VERTEX
  8
Top
  10
1.4432
  20
0.5866
  42
1
  0
VERTEX
  8
Top
  10
1.4497
  20
0.5866
  42
1
  0
VERTEX
  8
Top
  10
1.4432
  20
0.5866
  42
1
  0
SEQEND
  0
POLYLINE
  8
Top
  6
CONTINUOUS
  66
1
  70
0
  40
0.013
  41
0.013
  0
VERTEX
  8
Top
  10
1.4465
  20
0.5866
  42
0
  0
VERTEX
  8
Top
  10
1.4465
  20
0.6654
  42
0
  0
SEQEND
  0
POLYLINE
  8
Top
  6
CONTINUOUS
  66
1
  70
0
  40
0.0065
  41
0.0065
  0
VERTEX
  8
Top
  10
1.4432
  20
0.5866
  42
1
  0
VERTEX
  8
Top
  10
1.4497
  20
0.5866
  42
1
  0
VERTEX
  8
Top
  10
1.4432
  20
0.5866
  42
1
  0
SEQEND
  0
POLYLINE
  8
Top
  6
CONTINUOUS
  66
1
  70
0
  40
0.0065
  41
0.0065
  0
VERTEX
  8
Top
  10
1.4432
  20
0.6654
  42
1
  0
VERTEX
  8
Top
  10
1.4497
  20
0.6654
  42
1
  0
VERTEX
  8
Top
  10
1.4432
  20
0.6654
  42
1
  0
SEQEND
  0
POLYLINE
  8
Top
  6
CONTINUOUS
  66
1
  70
0
  40
0.0787
  41
0.0787
  0
VERTEX
  8
Top
  10
0.4307
  20
0.4709
  42
0
  0
VERTEX
  8
Top
  10
0.2496
  20
0.4709
  42
0
  0
SEQEND
  0
POLYLINE
  8
Top
  6
CONTINUOUS
  66
1
  70
0
  40
0.0394
  41
0.0394
  0
VERTEX
  8
Top
  10
0.411
  20
0.4709
  42
1
  0
VERTEX
  8
Top
  10
0.4504
  20
0.4709
  42
1
  0
VERTEX
  8
Top
  10
0.411
  20
0.4709
  42
1
  0
SEQEND
  0
POLYLINE
  8
Top
  6
CONTINUOUS
  66
1
  70
0
  40
0.0394
  41
0.0394
  0
VERTEX
  8
Top
  10
0.2299
  20
0.4709
  42
1
  0
VERTEX
  8
Top
  10
0.2693
  20
0.4709
  42
1
  0
VERTEX
  8
Top
  10
0.2299
  20
0.4709
  42
1
  0
SEQEND
  0
POLYLINE
  8
Top
  6
CONTINUOUS
  66
1
  70
0
  40
0.0787
  41
0.0787
  0
VERTEX
  8
Top
  10
0.2496
  20
0.4709
  42
0
  0
VERTEX
  8
Top
  10
0.2496
  20
0.1772
  42
0
  0
SEQEND
  0
POLYLINE
  8
Top
  6
CONTINUOUS
  66
1
  70
0
  40
0.0394
  41
0.0394
  0
VERTEX
  8
Top
  10
0.2299
  20
0.4709
  42
1
  0
VERTEX
  8
Top
  10
0.2693
  20
0.4709
  42
1
  0
VERTEX
  8
Top
  10
0.2299
  20
0.4709
  42
1
  0
SEQEND
  0
POLYLINE
  8
Top
  6
CONTINUOUS
  66
1
  70
0
  40
0.0394
  41
0.0394
  0
VERTEX
  8
Top
  10
0.2299
  20
0.1772
  42
1
  0
VERTEX
  8
Top
  10
0.2693
  20
0.1772
  42
1
  0
VERTEX
  8
Top
  10
0.2299
  20
0.1772
  42
1
  0
SEQEND
  0
POLYLINE
  8
Top
  6
CONTINUOUS
  66
1
  70
0
  40
0.013
  41
0.013
  0
VERTEX
  8
Top
  10
0.2496
  20
0.1772
  42
0
  0
VERTEX
  8
Top
  10
0.2417
  20
0.1693
  42
0
  0
SEQEND
  0
POLYLINE
  8
Top
  6
CONTINUOUS
  66
1
  70
0
  40
0.0065
  41
0.0065
  0
VERTEX
  8
Top
  10
0.2464
  20
0.1772
  42
1
  0
VERTEX
  8
Top
  10
0.2529
  20
0.1772
  42
1
  0
VERTEX
  8
Top
  10
0.2464
  20
0.1772
  42
1
  0
SEQEND
  0
POLYLINE
  8
Top
  6
CONTINUOUS
  66
1
  70
0
  40
0.0065
  41
0.0065
  0
VERTEX
  8
Top
  10
0.2385
  20
0.1693
  42
1
  0
VERTEX
  8
Top
  10
0.245
  20
0.1693
  42
1
  0
VERTEX
  8
Top
  10
0.2385
  20
0.1693
  42
1
  0
SEQEND
  0
POLYLINE
  8
Top
  6
CONTINUOUS
  66
1
  70
0
  40
0.013
  41
0.013
  0
VERTEX
  8
Top
  10
1.4465
  20
0.6654
  42
0
  0
VERTEX
  8
Top
  10
1.4465
  20
0.7874
  42
0
  0
SEQEND
  0
POLYLINE
  8
Top
  6
CONTINUOUS
  66
1
  70
0
  40
0.0065
  41
0.0065
  0
VERTEX
  8
Top
  10
1.4432
  20
0.6654
  42
1
  0
VERTEX
  8
Top
  10
1.4497
  20
0.6654
  42
1
  0
VERTEX
  8
Top
  10
1.4432
  20
0.6654
  42
1
  0
SEQEND
  0
POLYLINE
  8
Top
  6
CONTINUOUS
  66
1
  70
0
  40
0.0065
  41
0.0065
  0
VERTEX
  8
Top
  10
1.4432
  20
0.7874
  42
1
  0
VERTEX
  8
Top
  10
1.4497
  20
0.7874
  42
1
  0
VERTEX
  8
Top
  10
1.4432
  20
0.7874
  42
1
  0
SEQEND
  0
POLYLINE
  8
Top
  6
CONTINUOUS
  66
1
  70
0
  40
0.013
  41
0.013
  0
VERTEX
  8
Top
  10
1.4465
  20
0.7874
  42
0
  0
VERTEX
  8
Top
  10
1.6094
  20
0.7874
  42
0
  0
SEQEND
  0
POLYLINE
  8
Top
  6
CONTINUOUS
  66
1
  70
0
  40
0.0065
  41
0.0065
  0
VERTEX
  8
Top
  10
1.4432
  20
0.7874
  42
1
  0
VERTEX
  8
Top
  10
1.4497
  20
0.7874
  42
1
  0
VERTEX
  8
Top
  10
1.4432
  20
0.7874
  42
1
  0
SEQEND
  0
POLYLINE
  8
Top
  6
CONTINUOUS
  66
1
  70
0
  40
0.0065
  41
0.0065
  0
VERTEX
  8
Top
  10
1.6062
  20
0.7874
  42
1
  0
VERTEX
  8
Top
  10
1.6127
  20
0.7874
  42
1
  0
VERTEX
  8
Top
  10
1.6062
  20
0.7874
  42
1
  0
SEQEND
  0
POLYLINE
  8
Top
  6
CONTINUOUS
  66
1
  70
0
  40
0.013
  41
0.013
  0
VERTEX
  8
Top
  10
1.6094
  20
0.7874
  42
0
  0
VERTEX
  8
Top
  10
1.615
  20
0.7819
  42
0
  0
SEQEND
  0
POLYLINE
  8
Top
  6
CONTINUOUS
  66
1
  70
0
  40
0.0065
  41
0.0065
  0
VERTEX
  8
Top
  10
1.6062
  20
0.7874
  42
1
  0
VERTEX
  8
Top
  10
1.6127
  20
0.7874
  42
1
  0
VERTEX
  8
Top
  10
1.6062
  20
0.7874
  42
1
  0
SEQEND
  0
POLYLINE
  8
Top
  6
CONTINUOUS
  66
1
  70
0
  40
0.0065
  41
0.0065
  0
VERTEX
  8
Top
  10
1.6117
  20
0.7819
  42
1
  0
VERTEX
  8
Top
  10
1.6182
  20
0.7819
  42
1
  0
VERTEX
  8
Top
  10
1.6117
  20
0.7819
  42
1
  0
SEQEND
  0
POLYLINE
  8
Top
  6
CONTINUOUS
  66
1
  70
0
  40
0.013
  41
0.013
  0
VERTEX
  8
Top
  10
1.615
  20
0.7819
  42
0
  0
VERTEX
  8
Top
  10
1.6882
  20
0.7819
  42
0
  0
SEQEND
  0
POLYLINE
  8
Top
  6
CONTINUOUS
  66
1
  70
0
  40
0.0065
  41
0.0065
  0
VERTEX
  8
Top
  10
1.6117
  20
0.7819
  42
1
  0
VERTEX
  8
Top
  10
1.6182
  20
0.7819
  42
1
  0
VERTEX
  8
Top
  10
1.6117
  20
0.7819
  42
1
  0
SEQEND
  0
POLYLINE
  8
Top
  6
CONTINUOUS
  66
1
  70
0
  40
0.0065
  41
0.0065
  0
VERTEX
  8
Top
  10
1.6849
  20
0.7819
  42
1
  0
VERTEX
  8
Top
  10
1.6914
  20
0.7819
  42
1
  0
VERTEX
  8
Top
  10
1.6849
  20
0.7819
  42
1
  0
SEQEND
  0
POLYLINE
  8
Top
  6
CONTINUOUS
  66
1
  70
0
  40
0.013
  41
0.013
  0
VERTEX
  8
Top
  10
1.6882
  20
0.7819
  42
0
  0
VERTEX
  8
Top
  10
1.6945
  20
0.7756
  42
0
  0
SEQEND
  0
POLYLINE
  8
Top
  6
CONTINUOUS
  66
1
  70
0
  40
0.0065
  41
0.0065
  0
VERTEX
  8
Top
  10
1.6849
  20
0.7819
  42
1
  0
VERTEX
  8
Top
  10
1.6914
  20
0.7819
  42
1
  0
VERTEX
  8
Top
  10
1.6849
  20
0.7819
  42
1
  0
SEQEND
  0
POLYLINE
  8
Top
  6
CONTINUOUS
  66
1
  70
0
  40
0.0065
  41
0.0065
  0
VERTEX
  8
Top
  10
1.6912
  20
0.7756
  42
1
  0
VERTEX
  8
Top
  10
1.6977
  20
0.7756
  42
1
  0
VERTEX
  8
Top
  10
1.6912
  20
0.7756
  42
1
  0
SEQEND
  0
POLYLINE
  8
Top
  6
CONTINUOUS
  66
1
  70
0
  40
0.013
  41
0.013
  0
VERTEX
  8
Top
  10
1.5213
  20
0.6063
  42
0
  0
VERTEX
  8
Top
  10
1.5055
  20
0.6063
  42
0
  0
SEQEND
  0
POLYLINE
  8
Top
  6
CONTINUOUS
  66
1
  70
0
  40
0.0065
  41
0.0065
  0
VERTEX
  8
Top
  10
1.518
  20
0.6063
  42
1
  0
VERTEX
  8
Top
  10
1.5245
  20
0.6063
  42
1
  0
VERTEX
  8
Top
  10
1.518
  20
0.6063
  42
1
  0
SEQEND
  0
POLYLINE
  8
Top
  6
CONTINUOUS
  66
1
  70
0
  40
0.0065
  41
0.0065
  0
VERTEX
  8
Top
  10
1.5023
  20
0.6063
  42
1
  0
VERTEX
  8
Top
  10
1.5088
  20
0.6063
  42
1
  0
VERTEX
  8
Top
  10
1.5023
  20
0.6063
  42
1
  0
SEQEND
  0
POLYLINE
  8
Top
  6
CONTINUOUS
  66
1
  70
0
  40
0.013
  41
0.013
  0
VERTEX
  8
Top
  10
1.5055
  20
0.6063
  42
0
  0
VERTEX
  8
Top
  10
1.5055
  20
0.4764
  42
0
  0
SEQEND
  0
POLYLINE
  8
Top
  6
CONTINUOUS
  66
1
  70
0
  40
0.0065
  41
0.0065
  0
VERTEX
  8
Top
  10
1.5023
  20
0.6063
  42
1
  0
VERTEX
  8
Top
  10
1.5088
  20
0.6063
  42
1
  0
VERTEX
  8
Top
  10
1.5023
  20
0.6063
  42
1
  0
SEQEND
  0
POLYLINE
  8
Top
  6
CONTINUOUS
  66
1
  70
0
  40
0.0065
  41
0.0065
  0
VERTEX
  8
Top
  10
1.5023
  20
0.4764
  42
1
  0
VERTEX
  8
Top
  10
1.5088
  20
0.4764
  42
1
  0
VERTEX
  8
Top
  10
1.5023
  20
0.4764
  42
1
  0
SEQEND
  0
POLYLINE
  8
Top
  6
CONTINUOUS
  66
1
  70
0
  40
0.013
  41
0.013
  0
VERTEX
  8
Top
  10
1.5055
  20
0.4764
  42
0
  0
VERTEX
  8
Top
  10
1.3047
  20
0.4764
  42
0
  0
SEQEND
  0
POLYLINE
  8
Top
  6
CONTINUOUS
  66
1
  70
0
  40
0.0065
  41
0.0065
  0
VERTEX
  8
Top
  10
1.5023
  20
0.4764
  42
1
  0
VERTEX
  8
Top
  10
1.5088
  20
0.4764
  42
1
  0
VERTEX
  8
Top
  10
1.5023
  20
0.4764
  42
1
  0
SEQEND
  0
POLYLINE
  8
Top
  6
CONTINUOUS
  66
1
  70
0
  40
0.0065
  41
0.0065
  0
VERTEX
  8
Top
  10
1.3015
  20
0.4764
  42
1
  0
VERTEX
  8
Top
  10
1.308
  20
0.4764
  42
1
  0
VERTEX
  8
Top
  10
1.3015
  20
0.4764
  42
1
  0
SEQEND
  0
POLYLINE
  8
Top
  6
CONTINUOUS
  66
1
  70
0
  40
0.013
  41
0.013
  0
VERTEX
  8
Top
  10
1.3047
  20
0.4764
  42
0
  0
VERTEX
  8
Top
  10
1.3047
  20
0.3937
  42
0
  0
SEQEND
  0
POLYLINE
  8
Top
  6
CONTINUOUS
  66
1
  70
0
  40
0.0065
  41
0.0065
  0
VERTEX
  8
Top
  10
1.3015
  20
0.4764
  42
1
  0
VERTEX
  8
Top
  10
1.308
  20
0.4764
  42
1
  0
VERTEX
  8
Top
  10
1.3015
  20
0.4764
  42
1
  0
SEQEND
  0
POLYLINE
  8
Top
  6
CONTINUOUS
  66
1
  70
0
  40
0.0065
  41
0.0065
  0
VERTEX
  8
Top
  10
1.3015
  20
0.3937
  42
1
  0
VERTEX
  8
Top
  10
1.308
  20
0.3937
  42
1
  0
VERTEX
  8
Top
  10
1.3015
  20
0.3937
  42
1
  0
SEQEND
  0
POLYLINE
  8
Top
  6
CONTINUOUS
  66
1
  70
0
  40
0.013
  41
0.013
  0
VERTEX
  8
Top
  10
1.5213
  20
0.6063
  42
0
  0
VERTEX
  8
Top
  10
1.5213
  20
0.685
  42
0
  0
SEQEND
  0
POLYLINE
  8
Top
  6
CONTINUOUS
  66
1
  70
0
  40
0.0065
  41
0.0065
  0
VERTEX
  8
Top
  10
1.518
  20
0.6063
  42
1
  0
VERTEX
  8
Top
  10
1.5245
  20
0.6063
  42
1
  0
VERTEX
  8
Top
  10
1.518
  20
0.6063
  42
1
  0
SEQEND
  0
POLYLINE
  8
Top
  6
CONTINUOUS
  66
1
  70
0
  40
0.0065
  41
0.0065
  0
VERTEX
  8
Top
  10
1.518
  20
0.685
  42
1
  0
VERTEX
  8
Top
  10
1.5245
  20
0.685
  42
1
  0
VERTEX
  8
Top
  10
1.518
  20
0.685
  42
1
  0
SEQEND
  0
POLYLINE
  8
Top
  6
CONTINUOUS
  66
1
  70
0
  40
0.013
  41
0.013
  0
VERTEX
  8
Top
  10
1.5213
  20
0.685
  42
0
  0
VERTEX
  8
Top
  10
1.6118
  20
0.685
  42
0
  0
SEQEND
  0
POLYLINE
  8
Top
  6
CONTINUOUS
  66
1
  70
0
  40
0.0065
  41
0.0065
  0
VERTEX
  8
Top
  10
1.518
  20
0.685
  42
1
  0
VERTEX
  8
Top
  10
1.5245
  20
0.685
  42
1
  0
VERTEX
  8
Top
  10
1.518
  20
0.685
  42
1
  0
SEQEND
  0
POLYLINE
  8
Top
  6
CONTINUOUS
  66
1
  70
0
  40
0.0065
  41
0.0065
  0
VERTEX
  8
Top
  10
1.6086
  20
0.685
  42
1
  0
VERTEX
  8
Top
  10
1.6151
  20
0.685
  42
1
  0
VERTEX
  8
Top
  10
1.6086
  20
0.685
  42
1
  0
SEQEND
  0
POLYLINE
  8
Top
  6
CONTINUOUS
  66
1
  70
0
  40
0.013
  41
0.013
  0
VERTEX
  8
Top
  10
1.6118
  20
0.685
  42
0
  0
VERTEX
  8
Top
  10
1.615
  20
0.6819
  42
0
  0
SEQEND
  0
POLYLINE
  8
Top
  6
CONTINUOUS
  66
1
  70
0
  40
0.0065
  41
0.0065
  0
VERTEX
  8
Top
  10
1.6086
  20
0.685
  42
1
  0
VERTEX
  8
Top
  10
1.6151
  20
0.685
  42
1
  0
VERTEX
  8
Top
  10
1.6086
  20
0.685
  42
1
  0
SEQEND
  0
POLYLINE
  8
Top
  6
CONTINUOUS
  66
1
  70
0
  40
0.0065
  41
0.0065
  0
VERTEX
  8
Top
  10
1.6117
  20
0.6819
  42
1
  0
VERTEX
  8
Top
  10
1.6182
  20
0.6819
  42
1
  0
VERTEX
  8
Top
  10
1.6117
  20
0.6819
  42
1
  0
SEQEND
  0
POLYLINE
  8
Top
  6
CONTINUOUS
  66
1
  70
0
  40
0.013
  41
0.013
  0
VERTEX
  8
Top
  10
1.5134
  20
0.3031
  42
0
  0
VERTEX
  8
Top
  10
1.5134
  20
0.3976
  42
0
  0
SEQEND
  0
POLYLINE
  8
Top
  6
CONTINUOUS
  66
1
  70
0
  40
0.0065
  41
0.0065
  0
VERTEX
  8
Top
  10
1.5101
  20
0.3031
  42
1
  0
VERTEX
  8
Top
  10
1.5166
  20
0.3031
  42
1
  0
VERTEX
  8
Top
  10
1.5101
  20
0.3031
  42
1
  0
SEQEND
  0
POLYLINE
  8
Top
  6
CONTINUOUS
  66
1
  70
0
  40
0.0065
  41
0.0065
  0
VERTEX
  8
Top
  10
1.5101
  20
0.3976
  42
1
  0
VERTEX
  8
Top
  10
1.5166
  20
0.3976
  42
1
  0
VERTEX
  8
Top
  10
1.5101
  20
0.3976
  42
1
  0
SEQEND
  0
POLYLINE
  8
Top
  6
CONTINUOUS
  66
1
  70
0
  40
0.013
  41
0.013
  0
VERTEX
  8
Top
  10
1.5134
  20
0.3976
  42
0
  0
VERTEX
  8
Top
  10
1.5764
  20
0.3976
  42
0
  0
SEQEND
  0
POLYLINE
  8
Top
  6
CONTINUOUS
  66
1
  70
0
  40
0.0065
  41
0.0065
  0
VERTEX
  8
Top
  10
1.5101
  20
0.3976
  42
1
  0
VERTEX
  8
Top
  10
1.5166
  20
0.3976
  42
1
  0
VERTEX
  8
Top
  10
1.5101
  20
0.3976
  42
1
  0
SEQEND
  0
POLYLINE
  8
Top
  6
CONTINUOUS
  66
1
  70
0
  40
0.0065
  41
0.0065
  0
VERTEX
  8
Top
  10
1.5731
  20
0.3976
  42
1
  0
VERTEX
  8
Top
  10
1.5796
  20
0.3976
  42
1
  0
VERTEX
  8
Top
  10
1.5731
  20
0.3976
  42
1
  0
SEQEND
  0
POLYLINE
  8
Top
  6
CONTINUOUS
  66
1
  70
0
  40
0.013
  41
0.013
  0
VERTEX
  8
Top
  10
1.5764
  20
0.3976
  42
0
  0
VERTEX
  8
Top
  10
1.6197
  20
0.4409
  42
0
  0
SEQEND
  0
POLYLINE
  8
Top
  6
CONTINUOUS
  66
1
  70
0
  40
0.0065
  41
0.0065
  0
VERTEX
  8
Top
  10
1.5731
  20
0.3976
  42
1
  0
VERTEX
  8
Top
  10
1.5796
  20
0.3976
  42
1
  0
VERTEX
  8
Top
  10
1.5731
  20
0.3976
  42
1
  0
SEQEND
  0
POLYLINE
  8
Top
  6
CONTINUOUS
  66
1
  70
0
  40
0.0065
  41
0.0065
  0
VERTEX
  8
Top
  10
1.6164
  20
0.4409
  42
1
  0
VERTEX
  8
Top
  10
1.6229
  20
0.4409
  42
1
  0
VERTEX
  8
Top
  10
1.6164
  20
0.4409
  42
1
  0
SEQEND
  0
POLYLINE
  8
Top
  6
CONTINUOUS
  66
1
  70
0
  40
0.013
  41
0.013
  0
VERTEX
  8
Top
  10
1.615
  20
0.6819
  42
0
  0
VERTEX
  8
Top
  10
1.6756
  20
0.6819
  42
0
  0
SEQEND
  0
POLYLINE
  8
Top
  6
CONTINUOUS
  66
1
  70
0
  40
0.0065
  41
0.0065
  0
VERTEX
  8
Top
  10
1.6117
  20
0.6819
  42
1
  0
VERTEX
  8
Top
  10
1.6182
  20
0.6819
  42
1
  0
VERTEX
  8
Top
  10
1.6117
  20
0.6819
  42
1
  0
SEQEND
  0
POLYLINE
  8
Top
  6
CONTINUOUS
  66
1
  70
0
  40
0.0065
  41
0.0065
  0
VERTEX
  8
Top
  10
1.6723
  20
0.6819
  42
1
  0
VERTEX
  8
Top
  10
1.6788
  20
0.6819
  42
1
  0
VERTEX
  8
Top
  10
1.6723
  20
0.6819
  42
1
  0
SEQEND
  0
POLYLINE
  8
Top
  6
CONTINUOUS
  66
1
  70
0
  40
0.013
  41
0.013
  0
VERTEX
  8
Top
  10
1.6756
  20
0.6819
  42
0
  0
VERTEX
  8
Top
  10
1.6945
  20
0.7008
  42
0
  0
SEQEND
  0
POLYLINE
  8
Top
  6
CONTINUOUS
  66
1
  70
0
  40
0.0065
  41
0.0065
  0
VERTEX
  8
Top
  10
1.6723
  20
0.6819
  42
1
  0
VERTEX
  8
Top
  10
1.6788
  20
0.6819
  42
1
  0
VERTEX
  8
Top
  10
1.6723
  20
0.6819
  42
1
  0
SEQEND
  0
POLYLINE
  8
Top
  6
CONTINUOUS
  66
1
  70
0
  40
0.0065
  41
0.0065
  0
VERTEX
  8
Top
  10
1.6912
  20
0.7008
  42
1
  0
VERTEX
  8
Top
  10
1.6977
  20
0.7008
  42
1
  0
VERTEX
  8
Top
  10
1.6912
  20
0.7008
  42
1
  0
SEQEND
  0
POLYLINE
  8
Top
  6
CONTINUOUS
  66
1
  70
0
  40
0.013
  41
0.013
  0
VERTEX
  8
Top
  10
1.228
  20
0.3937
  42
0
  0
VERTEX
  8
Top
  10
1.228
  20
0.5236
  42
0
  0
SEQEND
  0
POLYLINE
  8
Top
  6
CONTINUOUS
  66
1
  70
0
  40
0.0065
  41
0.0065
  0
VERTEX
  8
Top
  10
1.2247
  20
0.3937
  42
1
  0
VERTEX
  8
Top
  10
1.2312
  20
0.3937
  42
1
  0
VERTEX
  8
Top
  10
1.2247
  20
0.3937
  42
1
  0
SEQEND
  0
POLYLINE
  8
Top
  6
CONTINUOUS
  66
1
  70
0
  40
0.0065
  41
0.0065
  0
VERTEX
  8
Top
  10
1.2247
  20
0.5236
  42
1
  0
VERTEX
  8
Top
  10
1.2312
  20
0.5236
  42
1
  0
VERTEX
  8
Top
  10
1.2247
  20
0.5236
  42
1
  0
SEQEND
  0
POLYLINE
  8
Top
  6
CONTINUOUS
  66
1
  70
0
  40
0.013
  41
0.013
  0
VERTEX
  8
Top
  10
1.228
  20
0.5236
  42
0
  0
VERTEX
  8
Top
  10
0.911
  20
0.5236
  42
0
  0
SEQEND
  0
POLYLINE
  8
Top
  6
CONTINUOUS
  66
1
  70
0
  40
0.0065
  41
0.0065
  0
VERTEX
  8
Top
  10
1.2247
  20
0.5236
  42
1
  0
VERTEX
  8
Top
  10
1.2312
  20
0.5236
  42
1
  0
VERTEX
  8
Top
  10
1.2247
  20
0.5236
  42
1
  0
SEQEND
  0
POLYLINE
  8
Top
  6
CONTINUOUS
  66
1
  70
0
  40
0.0065
  41
0.0065
  0
VERTEX
  8
Top
  10
0.9078
  20
0.5236
  42
1
  0
VERTEX
  8
Top
  10
0.9143
  20
0.5236
  42
1
  0
VERTEX
  8
Top
  10
0.9078
  20
0.5236
  42
1
  0
SEQEND
  0
POLYLINE
  8
Top
  6
CONTINUOUS
  66
1
  70
0
  40
0.013
  41
0.013
  0
VERTEX
  8
Top
  10
0.911
  20
0.5236
  42
0
  0
VERTEX
  8
Top
  10
0.911
  20
0.1693
  42
0
  0
SEQEND
  0
POLYLINE
  8
Top
  6
CONTINUOUS
  66
1
  70
0
  40
0.0065
  41
0.0065
  0
VERTEX
  8
Top
  10
0.9078
  20
0.5236
  42
1
  0
VERTEX
  8
Top
  10
0.9143
  20
0.5236
  42
1
  0
VERTEX
  8
Top
  10
0.9078
  20
0.5236
  42
1
  0
SEQEND
  0
POLYLINE
  8
Top
  6
CONTINUOUS
  66
1
  70
0
  40
0.0065
  41
0.0065
  0
VERTEX
  8
Top
  10
0.9078
  20
0.1693
  42
1
  0
VERTEX
  8
Top
  10
0.9143
  20
0.1693
  42
1
  0
VERTEX
  8
Top
  10
0.9078
  20
0.1693
  42
1
  0
SEQEND
  0
POLYLINE
  8
Top
  6
CONTINUOUS
  66
1
  70
0
  40
0.013
  41
0.013
  0
VERTEX
  8
Top
  10
0.911
  20
0.1693
  42
0
  0
VERTEX
  8
Top
  10
0.7323
  20
0.1693
  42
0
  0
SEQEND
  0
POLYLINE
  8
Top
  6
CONTINUOUS
  66
1
  70
0
  40
0.0065
  41
0.0065
  0
VERTEX
  8
Top
  10
0.9078
  20
0.1693
  42
1
  0
VERTEX
  8
Top
  10
0.9143
  20
0.1693
  42
1
  0
VERTEX
  8
Top
  10
0.9078
  20
0.1693
  42
1
  0
SEQEND
  0
POLYLINE
  8
Top
  6
CONTINUOUS
  66
1
  70
0
  40
0.0065
  41
0.0065
  0
VERTEX
  8
Top
  10
0.729
  20
0.1693
  42
1
  0
VERTEX
  8
Top
  10
0.7355
  20
0.1693
  42
1
  0
VERTEX
  8
Top
  10
0.729
  20
0.1693
  42
1
  0
SEQEND
  0
POLYLINE
  8
Top
  6
CONTINUOUS
  66
1
  70
0
  40
0.013
  41
0.013
  0
VERTEX
  8
Top
  10
0.7323
  20
0.1693
  42
0
  0
VERTEX
  8
Top
  10
0.7307
  20
0.1709
  42
0
  0
SEQEND
  0
POLYLINE
  8
Top
  6
CONTINUOUS
  66
1
  70
0
  40
0.0065
  41
0.0065
  0
VERTEX
  8
Top
  10
0.729
  20
0.1693
  42
1
  0
VERTEX
  8
Top
  10
0.7355
  20
0.1693
  42
1
  0
VERTEX
  8
Top
  10
0.729
  20
0.1693
  42
1
  0
SEQEND
  0
POLYLINE
  8
Top
  6
CONTINUOUS
  66
1
  70
0
  40
0.0065
  41
0.0065
  0
VERTEX
  8
Top
  10
0.7275
  20
0.1709
  42
1
  0
VERTEX
  8
Top
  10
0.734
  20
0.1709
  42
1
  0
VERTEX
  8
Top
  10
0.7275
  20
0.1709
  42
1
  0
SEQEND
  0
POLYLINE
  8
Top
  6
CONTINUOUS
  66
1
  70
0
  40
0.013
  41
0.013
  0
VERTEX
  8
Top
  10
1.4465
  20
0.5197
  42
0
  0
VERTEX
  8
Top
  10
1.4543
  20
0.5197
  42
0
  0
SEQEND
  0
POLYLINE
  8
Top
  6
CONTINUOUS
  66
1
  70
0
  40
0.0065
  41
0.0065
  0
VERTEX
  8
Top
  10
1.4432
  20
0.5197
  42
1
  0
VERTEX
  8
Top
  10
1.4497
  20
0.5197
  42
1
  0
VERTEX
  8
Top
  10
1.4432
  20
0.5197
  42
1
  0
SEQEND
  0
POLYLINE
  8
Top
  6
CONTINUOUS
  66
1
  70
0
  40
0.0065
  41
0.0065
  0
VERTEX
  8
Top
  10
1.4511
  20
0.5197
  42
1
  0
VERTEX
  8
Top
  10
1.4576
  20
0.5197
  42
1
  0
VERTEX
  8
Top
  10
1.4511
  20
0.5197
  42
1
  0
SEQEND
  0
POLYLINE
  8
Top
  6
CONTINUOUS
  66
1
  70
0
  40
0.013
  41
0.013
  0
VERTEX
  8
Top
  10
1.4543
  20
0.5197
  42
0
  0
VERTEX
  8
Top
  10
1.4543
  20
0.5118
  42
0
  0
SEQEND
  0
POLYLINE
  8
Top
  6
CONTINUOUS
  66
1
  70
0
  40
0.0065
  41
0.0065
  0
VERTEX
  8
Top
  10
1.4511
  20
0.5197
  42
1
  0
VERTEX
  8
Top
  10
1.4576
  20
0.5197
  42
1
  0
VERTEX
  8
Top
  10
1.4511
  20
0.5197
  42
1
  0
SEQEND
  0
POLYLINE
  8
Top
  6
CONTINUOUS
  66
1
  70
0
  40
0.0065
  41
0.0065
  0
VERTEX
  8
Top
  10
1.4511
  20
0.5118
  42
1
  0
VERTEX
  8
Top
  10
1.4576
  20
0.5118
  42
1
  0
VERTEX
  8
Top
  10
1.4511
  20
0.5118
  42
1
  0
SEQEND
  0
POLYLINE
  8
Top
  6
CONTINUOUS
  66
1
  70
0
  40
0.013
  41
0.013
  0
VERTEX
  8
Top
  10
1.4543
  20
0.5118
  42
0
  0
VERTEX
  8
Top
  10
1.2772
  20
0.5118
  42
0
  0
SEQEND
  0
POLYLINE
  8
Top
  6
CONTINUOUS
  66
1
  70
0
  40
0.0065
  41
0.0065
  0
VERTEX
  8
Top
  10
1.4511
  20
0.5118
  42
1
  0
VERTEX
  8
Top
  10
1.4576
  20
0.5118
  42
1
  0
VERTEX
  8
Top
  10
1.4511
  20
0.5118
  42
1
  0
SEQEND
  0
POLYLINE
  8
Top
  6
CONTINUOUS
  66
1
  70
0
  40
0.0065
  41
0.0065
  0
VERTEX
  8
Top
  10
1.2739
  20
0.5118
  42
1
  0
VERTEX
  8
Top
  10
1.2804
  20
0.5118
  42
1
  0
VERTEX
  8
Top
  10
1.2739
  20
0.5118
  42
1
  0
SEQEND
  0
POLYLINE
  8
Top
  6
CONTINUOUS
  66
1
  70
0
  40
0.013
  41
0.013
  0
VERTEX
  8
Top
  10
1.2772
  20
0.5118
  42
0
  0
VERTEX
  8
Top
  10
1.2772
  20
0.3917
  42
0
  0
SEQEND
  0
POLYLINE
  8
Top
  6
CONTINUOUS
  66
1
  70
0
  40
0.0065
  41
0.0065
  0
VERTEX
  8
Top
  10
1.2739
  20
0.5118
  42
1
  0
VERTEX
  8
Top
  10
1.2804
  20
0.5118
  42
1
  0
VERTEX
  8
Top
  10
1.2739
  20
0.5118
  42
1
  0
SEQEND
  0
POLYLINE
  8
Top
  6
CONTINUOUS
  66
1
  70
0
  40
0.0065
  41
0.0065
  0
VERTEX
  8
Top
  10
1.2739
  20
0.3917
  42
1
  0
VERTEX
  8
Top
  10
1.2804
  20
0.3917
  42
1
  0
VERTEX
  8
Top
  10
1.2739
  20
0.3917
  42
1
  0
SEQEND
  0
POLYLINE
  8
Top
  6
CONTINUOUS
  66
1
  70
0
  40
0.013
  41
0.013
  0
VERTEX
  8
Top
  10
1.2772
  20
0.3917
  42
0
  0
VERTEX
  8
Top
  10
1.2791
  20
0.3937
  42
0
  0
SEQEND
  0
POLYLINE
  8
Top
  6
CONTINUOUS
  66
1
  70
0
  40
0.0065
  41
0.0065
  0
VERTEX
  8
Top
  10
1.2739
  20
0.3917
  42
1
  0
VERTEX
  8
Top
  10
1.2804
  20
0.3917
  42
1
  0
VERTEX
  8
Top
  10
1.2739
  20
0.3917
  42
1
  0
SEQEND
  0
POLYLINE
  8
Top
  6
CONTINUOUS
  66
1
  70
0
  40
0.0065
  41
0.0065
  0
VERTEX
  8
Top
  10
1.2759
  20
0.3937
  42
1
  0
VERTEX
  8
Top
  10
1.2824
  20
0.3937
  42
1
  0
VERTEX
  8
Top
  10
1.2759
  20
0.3937
  42
1
  0
SEQEND
  0
POLYLINE
  8
Top
  6
CONTINUOUS
  66
1
  70
0
  40
0.013
  41
0.013
  0
VERTEX
  8
Top
  10
0.8165
  20
0.6732
  42
0
  0
VERTEX
  8
Top
  10
0.8165
  20
0.6732
  42
0
  0
SEQEND
  0
POLYLINE
  8
Top
  6
CONTINUOUS
  66
1
  70
0
  40
0.0065
  41
0.0065
  0
VERTEX
  8
Top
  10
0.8133
  20
0.6732
  42
1
  0
VERTEX
  8
Top
  10
0.8198
  20
0.6732
  42
1
  0
VERTEX
  8
Top
  10
0.8133
  20
0.6732
  42
1
  0
SEQEND
  0
POLYLINE
  8
Top
  6
CONTINUOUS
  66
1
  70
0
  40
0.013
  41
0.013
  0
VERTEX
  8
Top
  10
0.8165
  20
0.6732
  42
0
  0
VERTEX
  8
Top
  10
0.7331
  20
0.6732
  42
0
  0
SEQEND
  0
POLYLINE
  8
Top
  6
CONTINUOUS
  66
1
  70
0
  40
0.0065
  41
0.0065
  0
VERTEX
  8
Top
  10
0.8133
  20
0.6732
  42
1
  0
VERTEX
  8
Top
  10
0.8198
  20
0.6732
  42
1
  0
VERTEX
  8
Top
  10
0.8133
  20
0.6732
  42
1
  0
SEQEND
  0
POLYLINE
  8
Top
  6
CONTINUOUS
  66
1
  70
0
  40
0.0065
  41
0.0065
  0
VERTEX
  8
Top
  10
0.7298
  20
0.6732
  42
1
  0
VERTEX
  8
Top
  10
0.7363
  20
0.6732
  42
1
  0
VERTEX
  8
Top
  10
0.7298
  20
0.6732
  42
1
  0
SEQEND
  0
POLYLINE
  8
Top
  6
CONTINUOUS
  66
1
  70
0
  40
0.013
  41
0.013
  0
VERTEX
  8
Top
  10
0.7331
  20
0.6732
  42
0
  0
VERTEX
  8
Top
  10
0.7307
  20
0.6709
  42
0
  0
SEQEND
  0
POLYLINE
  8
Top
  6
CONTINUOUS
  66
1
  70
0
  40
0.0065
  41
0.0065
  0
VERTEX
  8
Top
  10
0.7298
  20
0.6732
  42
1
  0
VERTEX
  8
Top
  10
0.7363
  20
0.6732
  42
1
  0
VERTEX
  8
Top
  10
0.7298
  20
0.6732
  42
1
  0
SEQEND
  0
POLYLINE
  8
Top
  6
CONTINUOUS
  66
1
  70
0
  40
0.0065
  41
0.0065
  0
VERTEX
  8
Top
  10
0.7275
  20
0.6709
  42
1
  0
VERTEX
  8
Top
  10
0.734
  20
0.6709
  42
1
  0
VERTEX
  8
Top
  10
0.7275
  20
0.6709
  42
1
  0
SEQEND
  0
POLYLINE
  8
Top
  6
CONTINUOUS
  66
1
  70
0
  40
0.013
  41
0.013
  0
VERTEX
  8
Top
  10
1.1512
  20
0.3937
  42
0
  0
VERTEX
  8
Top
  10
1.1512
  20
0.2358
  42
0
  0
SEQEND
  0
POLYLINE
  8
Top
  6
CONTINUOUS
  66
1
  70
0
  40
0.0065
  41
0.0065
  0
VERTEX
  8
Top
  10
1.1479
  20
0.3937
  42
1
  0
VERTEX
  8
Top
  10
1.1544
  20
0.3937
  42
1
  0
VERTEX
  8
Top
  10
1.1479
  20
0.3937
  42
1
  0
SEQEND
  0
POLYLINE
  8
Top
  6
CONTINUOUS
  66
1
  70
0
  40
0.0065
  41
0.0065
  0
VERTEX
  8
Top
  10
1.1479
  20
0.2358
  42
1
  0
VERTEX
  8
Top
  10
1.1544
  20
0.2358
  42
1
  0
VERTEX
  8
Top
  10
1.1479
  20
0.2358
  42
1
  0
SEQEND
  0
POLYLINE
  8
Top
  6
CONTINUOUS
  66
1
  70
0
  40
0.013
  41
0.013
  0
VERTEX
  8
Top
  10
1.1512
  20
0.2358
  42
0
  0
VERTEX
  8
Top
  10
1.6146
  20
0.2358
  42
0
  0
SEQEND
  0
POLYLINE
  8
Top
  6
CONTINUOUS
  66
1
  70
0
  40
0.0065
  41
0.0065
  0
VERTEX
  8
Top
  10
1.1479
  20
0.2358
  42
1
  0
VERTEX
  8
Top
  10
1.1544
  20
0.2358
  42
1
  0
VERTEX
  8
Top
  10
1.1479
  20
0.2358
  42
1
  0
SEQEND
  0
POLYLINE
  8
Top
  6
CONTINUOUS
  66
1
  70
0
  40
0.0065
  41
0.0065
  0
VERTEX
  8
Top
  10
1.6113
  20
0.2358
  42
1
  0
VERTEX
  8
Top
  10
1.6178
  20
0.2358
  42
1
  0
VERTEX
  8
Top
  10
1.6113
  20
0.2358
  42
1
  0
SEQEND
  0
POLYLINE
  8
Top
  6
CONTINUOUS
  66
1
  70
0
  40
0.013
  41
0.013
  0
VERTEX
  8
Top
  10
1.6146
  20
0.2358
  42
0
  0
VERTEX
  8
Top
  10
1.6197
  20
0.2409
  42
0
  0
SEQEND
  0
POLYLINE
  8
Top
  6
CONTINUOUS
  66
1
  70
0
  40
0.0065
  41
0.0065
  0
VERTEX
  8
Top
  10
1.6113
  20
0.2358
  42
1
  0
VERTEX
  8
Top
  10
1.6178
  20
0.2358
  42
1
  0
VERTEX
  8
Top
  10
1.6113
  20
0.2358
  42
1
  0
SEQEND
  0
POLYLINE
  8
Top
  6
CONTINUOUS
  66
1
  70
0
  40
0.0065
  41
0.0065
  0
VERTEX
  8
Top
  10
1.6164
  20
0.2409
  42
1
  0
VERTEX
  8
Top
  10
1.6229
  20
0.2409
  42
1
  0
VERTEX
  8
Top
  10
1.6164
  20
0.2409
  42
1
  0
SEQEND
  0
POLYLINE
  8
Top
  6
CONTINUOUS
  66
1
  70
0
  40
0.013
  41
0.013
  0
VERTEX
  8
Top
  10
0.8445
  20
0.4484
  42
0
  0
VERTEX
  8
Top
  10
0.8445
  20
0.6063
  42
0
  0
SEQEND
  0
POLYLINE
  8
Top
  6
CONTINUOUS
  66
1
  70
0
  40
0.0065
  41
0.0065
  0
VERTEX
  8
Top
  10
0.8412
  20
0.4484
  42
1
  0
VERTEX
  8
Top
  10
0.8477
  20
0.4484
  42
1
  0
VERTEX
  8
Top
  10
0.8412
  20
0.4484
  42
1
  0
SEQEND
  0
POLYLINE
  8
Top
  6
CONTINUOUS
  66
1
  70
0
  40
0.0065
  41
0.0065
  0
VERTEX
  8
Top
  10
0.8412
  20
0.6063
  42
1
  0
VERTEX
  8
Top
  10
0.8477
  20
0.6063
  42
1
  0
VERTEX
  8
Top
  10
0.8412
  20
0.6063
  42
1
  0
SEQEND
  0
POLYLINE
  8
Top
  6
CONTINUOUS
  66
1
  70
0
  40
0.013
  41
0.013
  0
VERTEX
  8
Top
  10
0.8445
  20
0.6063
  42
0
  0
VERTEX
  8
Top
  10
1.1
  20
0.6063
  42
0
  0
SEQEND
  0
POLYLINE
  8
Top
  6
CONTINUOUS
  66
1
  70
0
  40
0.0065
  41
0.0065
  0
VERTEX
  8
Top
  10
0.8412
  20
0.6063
  42
1
  0
VERTEX
  8
Top
  10
0.8477
  20
0.6063
  42
1
  0
VERTEX
  8
Top
  10
0.8412
  20
0.6063
  42
1
  0
SEQEND
  0
POLYLINE
  8
Top
  6
CONTINUOUS
  66
1
  70
0
  40
0.0065
  41
0.0065
  0
VERTEX
  8
Top
  10
1.0968
  20
0.6063
  42
1
  0
VERTEX
  8
Top
  10
1.1032
  20
0.6063
  42
1
  0
VERTEX
  8
Top
  10
1.0968
  20
0.6063
  42
1
  0
SEQEND
  0
POLYLINE
  8
Top
  6
CONTINUOUS
  66
1
  70
0
  40
0.013
  41
0.013
  0
VERTEX
  8
Top
  10
1.1
  20
0.6063
  42
0
  0
VERTEX
  8
Top
  10
1.1
  20
0.622
  42
0
  0
SEQEND
  0
POLYLINE
  8
Top
  6
CONTINUOUS
  66
1
  70
0
  40
0.0065
  41
0.0065
  0
VERTEX
  8
Top
  10
1.0968
  20
0.6063
  42
1
  0
VERTEX
  8
Top
  10
1.1032
  20
0.6063
  42
1
  0
VERTEX
  8
Top
  10
1.0968
  20
0.6063
  42
1
  0
SEQEND
  0
POLYLINE
  8
Top
  6
CONTINUOUS
  66
1
  70
0
  40
0.0065
  41
0.0065
  0
VERTEX
  8
Top
  10
1.0968
  20
0.622
  42
1
  0
VERTEX
  8
Top
  10
1.1032
  20
0.622
  42
1
  0
VERTEX
  8
Top
  10
1.0968
  20
0.622
  42
1
  0
SEQEND
  0
POLYLINE
  8
Top
  6
CONTINUOUS
  66
1
  70
0
  40
0.013
  41
0.013
  0
VERTEX
  8
Top
  10
1.1256
  20
0.622
  42
0
  0
VERTEX
  8
Top
  10
1.1256
  20
0.6929
  42
0
  0
SEQEND
  0
POLYLINE
  8
Top
  6
CONTINUOUS
  66
1
  70
0
  40
0.0065
  41
0.0065
  0
VERTEX
  8
Top
  10
1.1223
  20
0.622
  42
1
  0
VERTEX
  8
Top
  10
1.1288
  20
0.622
  42
1
  0
VERTEX
  8
Top
  10
1.1223
  20
0.622
  42
1
  0
SEQEND
  0
POLYLINE
  8
Top
  6
CONTINUOUS
  66
1
  70
0
  40
0.0065
  41
0.0065
  0
VERTEX
  8
Top
  10
1.1223
  20
0.6929
  42
1
  0
VERTEX
  8
Top
  10
1.1288
  20
0.6929
  42
1
  0
VERTEX
  8
Top
  10
1.1223
  20
0.6929
  42
1
  0
SEQEND
  0
POLYLINE
  8
Top
  6
CONTINUOUS
  66
1
  70
0
  40
0.013
  41
0.013
  0
VERTEX
  8
Top
  10
1.1256
  20
0.6929
  42
0
  0
VERTEX
  8
Top
  10
0.9071
  20
0.6929
  42
0
  0
SEQEND
  0
POLYLINE
  8
Top
  6
CONTINUOUS
  66
1
  70
0
  40
0.0065
  41
0.0065
  0
VERTEX
  8
Top
  10
1.1223
  20
0.6929
  42
1
  0
VERTEX
  8
Top
  10
1.1288
  20
0.6929
  42
1
  0
VERTEX
  8
Top
  10
1.1223
  20
0.6929
  42
1
  0
SEQEND
  0
POLYLINE
  8
Top
  6
CONTINUOUS
  66
1
  70
0
  40
0.0065
  41
0.0065
  0
VERTEX
  8
Top
  10
0.9038
  20
0.6929
  42
1
  0
VERTEX
  8
Top
  10
0.9103
  20
0.6929
  42
1
  0
VERTEX
  8
Top
  10
0.9038
  20
0.6929
  42
1
  0
SEQEND
  0
POLYLINE
  8
Top
  6
CONTINUOUS
  66
1
  70
0
  40
0.013
  41
0.013
  0
VERTEX
  8
Top
  10
0.9071
  20
0.6929
  42
0
  0
VERTEX
  8
Top
  10
0.8913
  20
0.6772
  42
0
  0
SEQEND
  0
POLYLINE
  8
Top
  6
CONTINUOUS
  66
1
  70
0
  40
0.0065
  41
0.0065
  0
VERTEX
  8
Top
  10
0.9038
  20
0.6929
  42
1
  0
VERTEX
  8
Top
  10
0.9103
  20
0.6929
  42
1
  0
VERTEX
  8
Top
  10
0.9038
  20
0.6929
  42
1
  0
SEQEND
  0
POLYLINE
  8
Top
  6
CONTINUOUS
  66
1
  70
0
  40
0.0065
  41
0.0065
  0
VERTEX
  8
Top
  10
0.8881
  20
0.6772
  42
1
  0
VERTEX
  8
Top
  10
0.8946
  20
0.6772
  42
1
  0
VERTEX
  8
Top
  10
0.8881
  20
0.6772
  42
1
  0
SEQEND
  0
POLYLINE
  8
Top
  6
CONTINUOUS
  66
1
  70
0
  40
0.013
  41
0.013
  0
VERTEX
  8
Top
  10
0.8913
  20
0.6772
  42
0
  0
VERTEX
  8
Top
  10
0.8913
  20
0.6732
  42
0
  0
SEQEND
  0
POLYLINE
  8
Top
  6
CONTINUOUS
  66
1
  70
0
  40
0.0065
  41
0.0065
  0
VERTEX
  8
Top
  10
0.8881
  20
0.6772
  42
1
  0
VERTEX
  8
Top
  10
0.8946
  20
0.6772
  42
1
  0
VERTEX
  8
Top
  10
0.8881
  20
0.6772
  42
1
  0
SEQEND
  0
POLYLINE
  8
Top
  6
CONTINUOUS
  66
1
  70
0
  40
0.0065
  41
0.0065
  0
VERTEX
  8
Top
  10
0.8881
  20
0.6732
  42
1
  0
VERTEX
  8
Top
  10
0.8946
  20
0.6732
  42
1
  0
VERTEX
  8
Top
  10
0.8881
  20
0.6732
  42
1
  0
SEQEND
  0
POLYLINE
  8
Top
  6
CONTINUOUS
  66
1
  70
0
  40
0.013
  41
0.013
  0
VERTEX
  8
Top
  10
1.1512
  20
0.622
  42
0
  0
VERTEX
  8
Top
  10
1.1512
  20
0.7559
  42
0
  0
SEQEND
  0
POLYLINE
  8
Top
  6
CONTINUOUS
  66
1
  70
0
  40
0.0065
  41
0.0065
  0
VERTEX
  8
Top
  10
1.1479
  20
0.622
  42
1
  0
VERTEX
  8
Top
  10
1.1544
  20
0.622
  42
1
  0
VERTEX
  8
Top
  10
1.1479
  20
0.622
  42
1
  0
SEQEND
  0
POLYLINE
  8
Top
  6
CONTINUOUS
  66
1
  70
0
  40
0.0065
  41
0.0065
  0
VERTEX
  8
Top
  10
1.1479
  20
0.7559
  42
1
  0
VERTEX
  8
Top
  10
1.1544
  20
0.7559
  42
1
  0
VERTEX
  8
Top
  10
1.1479
  20
0.7559
  42
1
  0
SEQEND
  0
POLYLINE
  8
Top
  6
CONTINUOUS
  66
1
  70
0
  40
0.013
  41
0.013
  0
VERTEX
  8
Top
  10
1.1512
  20
0.7559
  42
0
  0
VERTEX
  8
Top
  10
1.1512
  20
0.7598
  42
0
  0
SEQEND
  0
POLYLINE
  8
Top
  6
CONTINUOUS
  66
1
  70
0
  40
0.0065
  41
0.0065
  0
VERTEX
  8
Top
  10
1.1479
  20
0.7559
  42
1
  0
VERTEX
  8
Top
  10
1.1544
  20
0.7559
  42
1
  0
VERTEX
  8
Top
  10
1.1479
  20
0.7559
  42
1
  0
SEQEND
  0
POLYLINE
  8
Top
  6
CONTINUOUS
  66
1
  70
0
  40
0.0065
  41
0.0065
  0
VERTEX
  8
Top
  10
1.1479
  20
0.7598
  42
1
  0
VERTEX
  8
Top
  10
1.1544
  20
0.7598
  42
1
  0
VERTEX
  8
Top
  10
1.1479
  20
0.7598
  42
1
  0
SEQEND
  0
POLYLINE
  8
Top
  6
CONTINUOUS
  66
1
  70
0
  40
0.013
  41
0.013
  0
VERTEX
  8
Top
  10
1.0087
  20
0.8622
  42
0
  0
VERTEX
  8
Top
  10
1.0087
  20
0.7559
  42
0
  0
SEQEND
  0
POLYLINE
  8
Top
  6
CONTINUOUS
  66
1
  70
0
  40
0.0065
  41
0.0065
  0
VERTEX
  8
Top
  10
1.0054
  20
0.8622
  42
1
  0
VERTEX
  8
Top
  10
1.0119
  20
0.8622
  42
1
  0
VERTEX
  8
Top
  10
1.0054
  20
0.8622
  42
1
  0
SEQEND
  0
POLYLINE
  8
Top
  6
CONTINUOUS
  66
1
  70
0
  40
0.0065
  41
0.0065
  0
VERTEX
  8
Top
  10
1.0054
  20
0.7559
  42
1
  0
VERTEX
  8
Top
  10
1.0119
  20
0.7559
  42
1
  0
VERTEX
  8
Top
  10
1.0054
  20
0.7559
  42
1
  0
SEQEND
  0
POLYLINE
  8
Top
  6
CONTINUOUS
  66
1
  70
0
  40
0.013
  41
0.013
  0
VERTEX
  8
Top
  10
1.0087
  20
0.7559
  42
0
  0
VERTEX
  8
Top
  10
1.1512
  20
0.7559
  42
0
  0
SEQEND
  0
POLYLINE
  8
Top
  6
CONTINUOUS
  66
1
  70
0
  40
0.0065
  41
0.0065
  0
VERTEX
  8
Top
  10
1.0054
  20
0.7559
  42
1
  0
VERTEX
  8
Top
  10
1.0119
  20
0.7559
  42
1
  0
VERTEX
  8
Top
  10
1.0054
  20
0.7559
  42
1
  0
SEQEND
  0
POLYLINE
  8
Top
  6
CONTINUOUS
  66
1
  70
0
  40
0.0065
  41
0.0065
  0
VERTEX
  8
Top
  10
1.1479
  20
0.7559
  42
1
  0
VERTEX
  8
Top
  10
1.1544
  20
0.7559
  42
1
  0
VERTEX
  8
Top
  10
1.1479
  20
0.7559
  42
1
  0
SEQEND
  0
POLYLINE
  8
Top
  6
CONTINUOUS
  66
1
  70
0
  40
0.013
  41
0.013
  0
VERTEX
  8
Top
  10
1.1256
  20
0.3937
  42
0
  0
VERTEX
  8
Top
  10
1.1276
  20
0.3937
  42
0
  0
SEQEND
  0
POLYLINE
  8
Top
  6
CONTINUOUS
  66
1
  70
0
  40
0.0065
  41
0.0065
  0
VERTEX
  8
Top
  10
1.1223
  20
0.3937
  42
1
  0
VERTEX
  8
Top
  10
1.1288
  20
0.3937
  42
1
  0
VERTEX
  8
Top
  10
1.1223
  20
0.3937
  42
1
  0
SEQEND
  0
POLYLINE
  8
Top
  6
CONTINUOUS
  66
1
  70
0
  40
0.0065
  41
0.0065
  0
VERTEX
  8
Top
  10
1.1243
  20
0.3937
  42
1
  0
VERTEX
  8
Top
  10
1.1308
  20
0.3937
  42
1
  0
VERTEX
  8
Top
  10
1.1243
  20
0.3937
  42
1
  0
SEQEND
  0
POLYLINE
  8
Top
  6
CONTINUOUS
  66
1
  70
0
  40
0.013
  41
0.013
  0
VERTEX
  8
Top
  10
1.1276
  20
0.3937
  42
0
  0
VERTEX
  8
Top
  10
1.1276
  20
0.1929
  42
0
  0
SEQEND
  0
POLYLINE
  8
Top
  6
CONTINUOUS
  66
1
  70
0
  40
0.0065
  41
0.0065
  0
VERTEX
  8
Top
  10
1.1243
  20
0.3937
  42
1
  0
VERTEX
  8
Top
  10
1.1308
  20
0.3937
  42
1
  0
VERTEX
  8
Top
  10
1.1243
  20
0.3937
  42
1
  0
SEQEND
  0
POLYLINE
  8
Top
  6
CONTINUOUS
  66
1
  70
0
  40
0.0065
  41
0.0065
  0
VERTEX
  8
Top
  10
1.1243
  20
0.1929
  42
1
  0
VERTEX
  8
Top
  10
1.1308
  20
0.1929
  42
1
  0
VERTEX
  8
Top
  10
1.1243
  20
0.1929
  42
1
  0
SEQEND
  0
POLYLINE
  8
Top
  6
CONTINUOUS
  66
1
  70
0
  40
0.013
  41
0.013
  0
VERTEX
  8
Top
  10
1.1276
  20
0.1929
  42
0
  0
VERTEX
  8
Top
  10
1.4898
  20
0.1929
  42
0
  0
SEQEND
  0
POLYLINE
  8
Top
  6
CONTINUOUS
  66
1
  70
0
  40
0.0065
  41
0.0065
  0
VERTEX
  8
Top
  10
1.1243
  20
0.1929
  42
1
  0
VERTEX
  8
Top
  10
1.1308
  20
0.1929
  42
1
  0
VERTEX
  8
Top
  10
1.1243
  20
0.1929
  42
1
  0
SEQEND
  0
POLYLINE
  8
Top
  6
CONTINUOUS
  66
1
  70
0
  40
0.0065
  41
0.0065
  0
VERTEX
  8
Top
  10
1.4865
  20
0.1929
  42
1
  0
VERTEX
  8
Top
  10
1.493
  20
0.1929
  42
1
  0
VERTEX
  8
Top
  10
1.4865
  20
0.1929
  42
1
  0
SEQEND
  0
POLYLINE
  8
Top
  6
CONTINUOUS
  66
1
  70
0
  40
0.013
  41
0.013
  0
VERTEX
  8
Top
  10
1.4898
  20
0.1929
  42
0
  0
VERTEX
  8
Top
  10
1.4898
  20
0.1409
  42
0
  0
SEQEND
  0
POLYLINE
  8
Top
  6
CONTINUOUS
  66
1
  70
0
  40
0.0065
  41
0.0065
  0
VERTEX
  8
Top
  10
1.4865
  20
0.1929
  42
1
  0
VERTEX
  8
Top
  10
1.493
  20
0.1929
  42
1
  0
VERTEX
  8
Top
  10
1.4865
  20
0.1929
  42
1
  0
SEQEND
  0
POLYLINE
  8
Top
  6
CONTINUOUS
  66
1
  70
0
  40
0.0065
  41
0.0065
  0
VERTEX
  8
Top
  10
1.4865
  20
0.1409
  42
1
  0
VERTEX
  8
Top
  10
1.493
  20
0.1409
  42
1
  0
VERTEX
  8
Top
  10
1.4865
  20
0.1409
  42
1
  0
SEQEND
  0
POLYLINE
  8
Top
  6
CONTINUOUS
  66
1
  70
0
  40
0.013
  41
0.013
  0
VERTEX
  8
Top
  10
1.4898
  20
0.1409
  42
0
  0
VERTEX
  8
Top
  10
1.6197
  20
0.1409
  42
0
  0
SEQEND
  0
POLYLINE
  8
Top
  6
CONTINUOUS
  66
1
  70
0
  40
0.0065
  41
0.0065
  0
VERTEX
  8
Top
  10
1.4865
  20
0.1409
  42
1
  0
VERTEX
  8
Top
  10
1.493
  20
0.1409
  42
1
  0
VERTEX
  8
Top
  10
1.4865
  20
0.1409
  42
1
  0
SEQEND
  0
POLYLINE
  8
Top
  6
CONTINUOUS
  66
1
  70
0
  40
0.0065
  41
0.0065
  0
VERTEX
  8
Top
  10
1.6164
  20
0.1409
  42
1
  0
VERTEX
  8
Top
  10
1.6229
  20
0.1409
  42
1
  0
VERTEX
  8
Top
  10
1.6164
  20
0.1409
  42
1
  0
SEQEND
  0
POLYLINE
  8
Top
  6
CONTINUOUS
  66
1
  70
0
  40
0.013
  41
0.013
  0
VERTEX
  8
Top
  10
1.1768
  20
0.622
  42
0
  0
VERTEX
  8
Top
  10
1.1768
  20
0.9606
  42
0
  0
SEQEND
  0
POLYLINE
  8
Top
  6
CONTINUOUS
  66
1
  70
0
  40
0.0065
  41
0.0065
  0
VERTEX
  8
Top
  10
1.1735
  20
0.622
  42
1
  0
VERTEX
  8
Top
  10
1.18
  20
0.622
  42
1
  0
VERTEX
  8
Top
  10
1.1735
  20
0.622
  42
1
  0
SEQEND
  0
POLYLINE
  8
Top
  6
CONTINUOUS
  66
1
  70
0
  40
0.0065
  41
0.0065
  0
VERTEX
  8
Top
  10
1.1735
  20
0.9606
  42
1
  0
VERTEX
  8
Top
  10
1.18
  20
0.9606
  42
1
  0
VERTEX
  8
Top
  10
1.1735
  20
0.9606
  42
1
  0
SEQEND
  0
POLYLINE
  8
Top
  6
CONTINUOUS
  66
1
  70
0
  40
0.013
  41
0.013
  0
VERTEX
  8
Top
  10
1.1768
  20
0.9606
  42
0
  0
VERTEX
  8
Top
  10
0.663
  20
0.9606
  42
0
  0
SEQEND
  0
POLYLINE
  8
Top
  6
CONTINUOUS
  66
1
  70
0
  40
0.0065
  41
0.0065
  0
VERTEX
  8
Top
  10
1.1735
  20
0.9606
  42
1
  0
VERTEX
  8
Top
  10
1.18
  20
0.9606
  42
1
  0
VERTEX
  8
Top
  10
1.1735
  20
0.9606
  42
1
  0
SEQEND
  0
POLYLINE
  8
Top
  6
CONTINUOUS
  66
1
  70
0
  40
0.0065
  41
0.0065
  0
VERTEX
  8
Top
  10
0.6597
  20
0.9606
  42
1
  0
VERTEX
  8
Top
  10
0.6662
  20
0.9606
  42
1
  0
VERTEX
  8
Top
  10
0.6597
  20
0.9606
  42
1
  0
SEQEND
  0
POLYLINE
  8
Top
  6
CONTINUOUS
  66
1
  70
0
  40
0.013
  41
0.013
  0
VERTEX
  8
Top
  10
0.663
  20
0.9606
  42
0
  0
VERTEX
  8
Top
  10
0.663
  20
0.7835
  42
0
  0
SEQEND
  0
POLYLINE
  8
Top
  6
CONTINUOUS
  66
1
  70
0
  40
0.0065
  41
0.0065
  0
VERTEX
  8
Top
  10
0.6597
  20
0.9606
  42
1
  0
VERTEX
  8
Top
  10
0.6662
  20
0.9606
  42
1
  0
VERTEX
  8
Top
  10
0.6597
  20
0.9606
  42
1
  0
SEQEND
  0
POLYLINE
  8
Top
  6
CONTINUOUS
  66
1
  70
0
  40
0.0065
  41
0.0065
  0
VERTEX
  8
Top
  10
0.6597
  20
0.7835
  42
1
  0
VERTEX
  8
Top
  10
0.6662
  20
0.7835
  42
1
  0
VERTEX
  8
Top
  10
0.6597
  20
0.7835
  42
1
  0
SEQEND
  0
POLYLINE
  8
Top
  6
CONTINUOUS
  66
1
  70
0
  40
0.013
  41
0.013
  0
VERTEX
  8
Top
  10
0.663
  20
0.7835
  42
0
  0
VERTEX
  8
Top
  10
0.7181
  20
0.7835
  42
0
  0
SEQEND
  0
POLYLINE
  8
Top
  6
CONTINUOUS
  66
1
  70
0
  40
0.0065
  41
0.0065
  0
VERTEX
  8
Top
  10
0.6597
  20
0.7835
  42
1
  0
VERTEX
  8
Top
  10
0.6662
  20
0.7835
  42
1
  0
VERTEX
  8
Top
  10
0.6597
  20
0.7835
  42
1
  0
SEQEND
  0
POLYLINE
  8
Top
  6
CONTINUOUS
  66
1
  70
0
  40
0.0065
  41
0.0065
  0
VERTEX
  8
Top
  10
0.7149
  20
0.7835
  42
1
  0
VERTEX
  8
Top
  10
0.7214
  20
0.7835
  42
1
  0
VERTEX
  8
Top
  10
0.7149
  20
0.7835
  42
1
  0
SEQEND
  0
POLYLINE
  8
Top
  6
CONTINUOUS
  66
1
  70
0
  40
0.013
  41
0.013
  0
VERTEX
  8
Top
  10
0.7181
  20
0.7835
  42
0
  0
VERTEX
  8
Top
  10
0.7307
  20
0.7709
  42
0
  0
SEQEND
  0
POLYLINE
  8
Top
  6
CONTINUOUS
  66
1
  70
0
  40
0.0065
  41
0.0065
  0
VERTEX
  8
Top
  10
0.7149
  20
0.7835
  42
1
  0
VERTEX
  8
Top
  10
0.7214
  20
0.7835
  42
1
  0
VERTEX
  8
Top
  10
0.7149
  20
0.7835
  42
1
  0
SEQEND
  0
POLYLINE
  8
Top
  6
CONTINUOUS
  66
1
  70
0
  40
0.0065
  41
0.0065
  0
VERTEX
  8
Top
  10
0.7275
  20
0.7709
  42
1
  0
VERTEX
  8
Top
  10
0.734
  20
0.7709
  42
1
  0
VERTEX
  8
Top
  10
0.7275
  20
0.7709
  42
1
  0
SEQEND
  0
POLYLINE
  8
Top
  6
CONTINUOUS
  66
1
  70
0
  40
0.013
  41
0.013
  0
VERTEX
  8
Top
  10
1.2024
  20
0.622
  42
0
  0
VERTEX
  8
Top
  10
1.2024
  20
0.9882
  42
0
  0
SEQEND
  0
POLYLINE
  8
Top
  6
CONTINUOUS
  66
1
  70
0
  40
0.0065
  41
0.0065
  0
VERTEX
  8
Top
  10
1.1991
  20
0.622
  42
1
  0
VERTEX
  8
Top
  10
1.2056
  20
0.622
  42
1
  0
VERTEX
  8
Top
  10
1.1991
  20
0.622
  42
1
  0
SEQEND
  0
POLYLINE
  8
Top
  6
CONTINUOUS
  66
1
  70
0
  40
0.0065
  41
0.0065
  0
VERTEX
  8
Top
  10
1.1991
  20
0.9882
  42
1
  0
VERTEX
  8
Top
  10
1.2056
  20
0.9882
  42
1
  0
VERTEX
  8
Top
  10
1.1991
  20
0.9882
  42
1
  0
SEQEND
  0
POLYLINE
  8
Top
  6
CONTINUOUS
  66
1
  70
0
  40
0.013
  41
0.013
  0
VERTEX
  8
Top
  10
1.2024
  20
0.9882
  42
0
  0
VERTEX
  8
Top
  10
1.1945
  20
0.9961
  42
0
  0
SEQEND
  0
POLYLINE
  8
Top
  6
CONTINUOUS
  66
1
  70
0
  40
0.0065
  41
0.0065
  0
VERTEX
  8
Top
  10
1.1991
  20
0.9882
  42
1
  0
VERTEX
  8
Top
  10
1.2056
  20
0.9882
  42
1
  0
VERTEX
  8
Top
  10
1.1991
  20
0.9882
  42
1
  0
SEQEND
  0
POLYLINE
  8
Top
  6
CONTINUOUS
  66
1
  70
0
  40
0.0065
  41
0.0065
  0
VERTEX
  8
Top
  10
1.1912
  20
0.9961
  42
1
  0
VERTEX
  8
Top
  10
1.1977
  20
0.9961
  42
1
  0
VERTEX
  8
Top
  10
1.1912
  20
0.9961
  42
1
  0
SEQEND
  0
POLYLINE
  8
Top
  6
CONTINUOUS
  66
1
  70
0
  40
0.013
  41
0.013
  0
VERTEX
  8
Top
  10
1.1945
  20
0.9961
  42
0
  0
VERTEX
  8
Top
  10
0.6157
  20
0.9961
  42
0
  0
SEQEND
  0
POLYLINE
  8
Top
  6
CONTINUOUS
  66
1
  70
0
  40
0.0065
  41
0.0065
  0
VERTEX
  8
Top
  10
1.1912
  20
0.9961
  42
1
  0
VERTEX
  8
Top
  10
1.1977
  20
0.9961
  42
1
  0
VERTEX
  8
Top
  10
1.1912
  20
0.9961
  42
1
  0
SEQEND
  0
POLYLINE
  8
Top
  6
CONTINUOUS
  66
1
  70
0
  40
0.0065
  41
0.0065
  0
VERTEX
  8
Top
  10
0.6125
  20
0.9961
  42
1
  0
VERTEX
  8
Top
  10
0.619
  20
0.9961
  42
1
  0
VERTEX
  8
Top
  10
0.6125
  20
0.9961
  42
1
  0
SEQEND
  0
POLYLINE
  8
Top
  6
CONTINUOUS
  66
1
  70
0
  40
0.013
  41
0.013
  0
VERTEX
  8
Top
  10
0.6157
  20
0.9961
  42
0
  0
VERTEX
  8
Top
  10
0.6157
  20
0.2756
  42
0
  0
SEQEND
  0
POLYLINE
  8
Top
  6
CONTINUOUS
  66
1
  70
0
  40
0.0065
  41
0.0065
  0
VERTEX
  8
Top
  10
0.6125
  20
0.9961
  42
1
  0
VERTEX
  8
Top
  10
0.619
  20
0.9961
  42
1
  0
VERTEX
  8
Top
  10
0.6125
  20
0.9961
  42
1
  0
SEQEND
  0
POLYLINE
  8
Top
  6
CONTINUOUS
  66
1
  70
0
  40
0.0065
  41
0.0065
  0
VERTEX
  8
Top
  10
0.6125
  20
0.2756
  42
1
  0
VERTEX
  8
Top
  10
0.619
  20
0.2756
  42
1
  0
VERTEX
  8
Top
  10
0.6125
  20
0.2756
  42
1
  0
SEQEND
  0
POLYLINE
  8
Top
  6
CONTINUOUS
  66
1
  70
0
  40
0.013
  41
0.013
  0
VERTEX
  8
Top
  10
0.6157
  20
0.2756
  42
0
  0
VERTEX
  8
Top
  10
0.726
  20
0.2756
  42
0
  0
SEQEND
  0
POLYLINE
  8
Top
  6
CONTINUOUS
  66
1
  70
0
  40
0.0065
  41
0.0065
  0
VERTEX
  8
Top
  10
0.6125
  20
0.2756
  42
1
  0
VERTEX
  8
Top
  10
0.619
  20
0.2756
  42
1
  0
VERTEX
  8
Top
  10
0.6125
  20
0.2756
  42
1
  0
SEQEND
  0
POLYLINE
  8
Top
  6
CONTINUOUS
  66
1
  70
0
  40
0.0065
  41
0.0065
  0
VERTEX
  8
Top
  10
0.7227
  20
0.2756
  42
1
  0
VERTEX
  8
Top
  10
0.7292
  20
0.2756
  42
1
  0
VERTEX
  8
Top
  10
0.7227
  20
0.2756
  42
1
  0
SEQEND
  0
POLYLINE
  8
Top
  6
CONTINUOUS
  66
1
  70
0
  40
0.013
  41
0.013
  0
VERTEX
  8
Top
  10
0.726
  20
0.2756
  42
0
  0
VERTEX
  8
Top
  10
0.7307
  20
0.2709
  42
0
  0
SEQEND
  0
POLYLINE
  8
Top
  6
CONTINUOUS
  66
1
  70
0
  40
0.0065
  41
0.0065
  0
VERTEX
  8
Top
  10
0.7227
  20
0.2756
  42
1
  0
VERTEX
  8
Top
  10
0.7292
  20
0.2756
  42
1
  0
VERTEX
  8
Top
  10
0.7227
  20
0.2756
  42
1
  0
SEQEND
  0
POLYLINE
  8
Top
  6
CONTINUOUS
  66
1
  70
0
  40
0.0065
  41
0.0065
  0
VERTEX
  8
Top
  10
0.7275
  20
0.2709
  42
1
  0
VERTEX
  8
Top
  10
0.734
  20
0.2709
  42
1
  0
VERTEX
  8
Top
  10
0.7275
  20
0.2709
  42
1
  0
SEQEND
  0
POLYLINE
  8
Top
  6
CONTINUOUS
  66
1
  70
0
  40
0.013
  41
0.013
  0
VERTEX
  8
Top
  10
1.228
  20
0.622
  42
0
  0
VERTEX
  8
Top
  10
1.228
  20
1.0354
  42
0
  0
SEQEND
  0
POLYLINE
  8
Top
  6
CONTINUOUS
  66
1
  70
0
  40
0.0065
  41
0.0065
  0
VERTEX
  8
Top
  10
1.2247
  20
0.622
  42
1
  0
VERTEX
  8
Top
  10
1.2312
  20
0.622
  42
1
  0
VERTEX
  8
Top
  10
1.2247
  20
0.622
  42
1
  0
SEQEND
  0
POLYLINE
  8
Top
  6
CONTINUOUS
  66
1
  70
0
  40
0.0065
  41
0.0065
  0
VERTEX
  8
Top
  10
1.2247
  20
1.0354
  42
1
  0
VERTEX
  8
Top
  10
1.2312
  20
1.0354
  42
1
  0
VERTEX
  8
Top
  10
1.2247
  20
1.0354
  42
1
  0
SEQEND
  0
POLYLINE
  8
Top
  6
CONTINUOUS
  66
1
  70
0
  40
0.013
  41
0.013
  0
VERTEX
  8
Top
  10
1.228
  20
1.0354
  42
0
  0
VERTEX
  8
Top
  10
0.5646
  20
1.0354
  42
0
  0
SEQEND
  0
POLYLINE
  8
Top
  6
CONTINUOUS
  66
1
  70
0
  40
0.0065
  41
0.0065
  0
VERTEX
  8
Top
  10
1.2247
  20
1.0354
  42
1
  0
VERTEX
  8
Top
  10
1.2312
  20
1.0354
  42
1
  0
VERTEX
  8
Top
  10
1.2247
  20
1.0354
  42
1
  0
SEQEND
  0
POLYLINE
  8
Top
  6
CONTINUOUS
  66
1
  70
0
  40
0.0065
  41
0.0065
  0
VERTEX
  8
Top
  10
0.5613
  20
1.0354
  42
1
  0
VERTEX
  8
Top
  10
0.5678
  20
1.0354
  42
1
  0
VERTEX
  8
Top
  10
0.5613
  20
1.0354
  42
1
  0
SEQEND
  0
POLYLINE
  8
Top
  6
CONTINUOUS
  66
1
  70
0
  40
0.013
  41
0.013
  0
VERTEX
  8
Top
  10
0.5646
  20
1.0354
  42
0
  0
VERTEX
  8
Top
  10
0.5646
  20
0.2677
  42
0
  0
SEQEND
  0
POLYLINE
  8
Top
  6
CONTINUOUS
  66
1
  70
0
  40
0.0065
  41
0.0065
  0
VERTEX
  8
Top
  10
0.5613
  20
1.0354
  42
1
  0
VERTEX
  8
Top
  10
0.5678
  20
1.0354
  42
1
  0
VERTEX
  8
Top
  10
0.5613
  20
1.0354
  42
1
  0
SEQEND
  0
POLYLINE
  8
Top
  6
CONTINUOUS
  66
1
  70
0
  40
0.0065
  41
0.0065
  0
VERTEX
  8
Top
  10
0.5613
  20
0.2677
  42
1
  0
VERTEX
  8
Top
  10
0.5678
  20
0.2677
  42
1
  0
VERTEX
  8
Top
  10
0.5613
  20
0.2677
  42
1
  0
SEQEND
  0
POLYLINE
  8
Top
  6
CONTINUOUS
  66
1
  70
0
  40
0.013
  41
0.013
  0
VERTEX
  8
Top
  10
0.5646
  20
0.2677
  42
0
  0
VERTEX
  8
Top
  10
0.4339
  20
0.2677
  42
0
  0
SEQEND
  0
POLYLINE
  8
Top
  6
CONTINUOUS
  66
1
  70
0
  40
0.0065
  41
0.0065
  0
VERTEX
  8
Top
  10
0.5613
  20
0.2677
  42
1
  0
VERTEX
  8
Top
  10
0.5678
  20
0.2677
  42
1
  0
VERTEX
  8
Top
  10
0.5613
  20
0.2677
  42
1
  0
SEQEND
  0
POLYLINE
  8
Top
  6
CONTINUOUS
  66
1
  70
0
  40
0.0065
  41
0.0065
  0
VERTEX
  8
Top
  10
0.4306
  20
0.2677
  42
1
  0
VERTEX
  8
Top
  10
0.4371
  20
0.2677
  42
1
  0
VERTEX
  8
Top
  10
0.4306
  20
0.2677
  42
1
  0
SEQEND
  0
POLYLINE
  8
Top
  6
CONTINUOUS
  66
1
  70
0
  40
0.013
  41
0.013
  0
VERTEX
  8
Top
  10
0.4339
  20
0.2677
  42
0
  0
VERTEX
  8
Top
  10
0.4307
  20
0.2709
  42
0
  0
SEQEND
  0
POLYLINE
  8
Top
  6
CONTINUOUS
  66
1
  70
0
  40
0.0065
  41
0.0065
  0
VERTEX
  8
Top
  10
0.4306
  20
0.2677
  42
1
  0
VERTEX
  8
Top
  10
0.4371
  20
0.2677
  42
1
  0
VERTEX
  8
Top
  10
0.4306
  20
0.2677
  42
1
  0
SEQEND
  0
POLYLINE
  8
Top
  6
CONTINUOUS
  66
1
  70
0
  40
0.0065
  41
0.0065
  0
VERTEX
  8
Top
  10
0.4275
  20
0.2709
  42
1
  0
VERTEX
  8
Top
  10
0.434
  20
0.2709
  42
1
  0
VERTEX
  8
Top
  10
0.4275
  20
0.2709
  42
1
  0
SEQEND
  0
POLYLINE
  8
Top
  6
CONTINUOUS
  66
1
  70
0
  40
0.013
  41
0.013
  0
VERTEX
  8
Top
  10
0.8445
  20
0.3736
  42
0
  0
VERTEX
  8
Top
  10
0.7335
  20
0.3736
  42
0
  0
SEQEND
  0
POLYLINE
  8
Top
  6
CONTINUOUS
  66
1
  70
0
  40
0.0065
  41
0.0065
  0
VERTEX
  8
Top
  10
0.8412
  20
0.3736
  42
1
  0
VERTEX
  8
Top
  10
0.8477
  20
0.3736
  42
1
  0
VERTEX
  8
Top
  10
0.8412
  20
0.3736
  42
1
  0
SEQEND
  0
POLYLINE
  8
Top
  6
CONTINUOUS
  66
1
  70
0
  40
0.0065
  41
0.0065
  0
VERTEX
  8
Top
  10
0.7302
  20
0.3736
  42
1
  0
VERTEX
  8
Top
  10
0.7367
  20
0.3736
  42
1
  0
VERTEX
  8
Top
  10
0.7302
  20
0.3736
  42
1
  0
SEQEND
  0
POLYLINE
  8
Top
  6
CONTINUOUS
  66
1
  70
0
  40
0.013
  41
0.013
  0
VERTEX
  8
Top
  10
0.7335
  20
0.3736
  42
0
  0
VERTEX
  8
Top
  10
0.7307
  20
0.3709
  42
0
  0
SEQEND
  0
POLYLINE
  8
Top
  6
CONTINUOUS
  66
1
  70
0
  40
0.0065
  41
0.0065
  0
VERTEX
  8
Top
  10
0.7302
  20
0.3736
  42
1
  0
VERTEX
  8
Top
  10
0.7367
  20
0.3736
  42
1
  0
VERTEX
  8
Top
  10
0.7302
  20
0.3736
  42
1
  0
SEQEND
  0
POLYLINE
  8
Top
  6
CONTINUOUS
  66
1
  70
0
  40
0.0065
  41
0.0065
  0
VERTEX
  8
Top
  10
0.7275
  20
0.3709
  42
1
  0
VERTEX
  8
Top
  10
0.734
  20
0.3709
  42
1
  0
VERTEX
  8
Top
  10
0.7275
  20
0.3709
  42
1
  0
SEQEND
  0
POLYLINE
  8
Top
  6
CONTINUOUS
  66
1
  70
0
  40
0.013
  41
0.013
  0
VERTEX
  8
Top
  10
1.2535
  20
0.622
  42
0
  0
VERTEX
  8
Top
  10
1.2535
  20
1.0709
  42
0
  0
SEQEND
  0
POLYLINE
  8
Top
  6
CONTINUOUS
  66
1
  70
0
  40
0.0065
  41
0.0065
  0
VERTEX
  8
Top
  10
1.2503
  20
0.622
  42
1
  0
VERTEX
  8
Top
  10
1.2568
  20
0.622
  42
1
  0
VERTEX
  8
Top
  10
1.2503
  20
0.622
  42
1
  0
SEQEND
  0
POLYLINE
  8
Top
  6
CONTINUOUS
  66
1
  70
0
  40
0.0065
  41
0.0065
  0
VERTEX
  8
Top
  10
1.2503
  20
1.0709
  42
1
  0
VERTEX
  8
Top
  10
1.2568
  20
1.0709
  42
1
  0
VERTEX
  8
Top
  10
1.2503
  20
1.0709
  42
1
  0
SEQEND
  0
POLYLINE
  8
Top
  6
CONTINUOUS
  66
1
  70
0
  40
0.013
  41
0.013
  0
VERTEX
  8
Top
  10
1.2535
  20
1.0709
  42
0
  0
VERTEX
  8
Top
  10
0.5173
  20
1.0709
  42
0
  0
SEQEND
  0
POLYLINE
  8
Top
  6
CONTINUOUS
  66
1
  70
0
  40
0.0065
  41
0.0065
  0
VERTEX
  8
Top
  10
1.2503
  20
1.0709
  42
1
  0
VERTEX
  8
Top
  10
1.2568
  20
1.0709
  42
1
  0
VERTEX
  8
Top
  10
1.2503
  20
1.0709
  42
1
  0
SEQEND
  0
POLYLINE
  8
Top
  6
CONTINUOUS
  66
1
  70
0
  40
0.0065
  41
0.0065
  0
VERTEX
  8
Top
  10
0.5141
  20
1.0709
  42
1
  0
VERTEX
  8
Top
  10
0.5206
  20
1.0709
  42
1
  0
VERTEX
  8
Top
  10
0.5141
  20
1.0709
  42
1
  0
SEQEND
  0
POLYLINE
  8
Top
  6
CONTINUOUS
  66
1
  70
0
  40
0.013
  41
0.013
  0
VERTEX
  8
Top
  10
0.5173
  20
1.0709
  42
0
  0
VERTEX
  8
Top
  10
0.5173
  20
0.7559
  42
0
  0
SEQEND
  0
POLYLINE
  8
Top
  6
CONTINUOUS
  66
1
  70
0
  40
0.0065
  41
0.0065
  0
VERTEX
  8
Top
  10
0.5141
  20
1.0709
  42
1
  0
VERTEX
  8
Top
  10
0.5206
  20
1.0709
  42
1
  0
VERTEX
  8
Top
  10
0.5141
  20
1.0709
  42
1
  0
SEQEND
  0
POLYLINE
  8
Top
  6
CONTINUOUS
  66
1
  70
0
  40
0.0065
  41
0.0065
  0
VERTEX
  8
Top
  10
0.5141
  20
0.7559
  42
1
  0
VERTEX
  8
Top
  10
0.5206
  20
0.7559
  42
1
  0
VERTEX
  8
Top
  10
0.5141
  20
0.7559
  42
1
  0
SEQEND
  0
POLYLINE
  8
Top
  6
CONTINUOUS
  66
1
  70
0
  40
0.013
  41
0.013
  0
VERTEX
  8
Top
  10
0.5173
  20
0.7559
  42
0
  0
VERTEX
  8
Top
  10
0.4457
  20
0.7559
  42
0
  0
SEQEND
  0
POLYLINE
  8
Top
  6
CONTINUOUS
  66
1
  70
0
  40
0.0065
  41
0.0065
  0
VERTEX
  8
Top
  10
0.5141
  20
0.7559
  42
1
  0
VERTEX
  8
Top
  10
0.5206
  20
0.7559
  42
1
  0
VERTEX
  8
Top
  10
0.5141
  20
0.7559
  42
1
  0
SEQEND
  0
POLYLINE
  8
Top
  6
CONTINUOUS
  66
1
  70
0
  40
0.0065
  41
0.0065
  0
VERTEX
  8
Top
  10
0.4424
  20
0.7559
  42
1
  0
VERTEX
  8
Top
  10
0.4489
  20
0.7559
  42
1
  0
VERTEX
  8
Top
  10
0.4424
  20
0.7559
  42
1
  0
SEQEND
  0
POLYLINE
  8
Top
  6
CONTINUOUS
  66
1
  70
0
  40
0.013
  41
0.013
  0
VERTEX
  8
Top
  10
0.4457
  20
0.7559
  42
0
  0
VERTEX
  8
Top
  10
0.4307
  20
0.7709
  42
0
  0
SEQEND
  0
POLYLINE
  8
Top
  6
CONTINUOUS
  66
1
  70
0
  40
0.0065
  41
0.0065
  0
VERTEX
  8
Top
  10
0.4424
  20
0.7559
  42
1
  0
VERTEX
  8
Top
  10
0.4489
  20
0.7559
  42
1
  0
VERTEX
  8
Top
  10
0.4424
  20
0.7559
  42
1
  0
SEQEND
  0
POLYLINE
  8
Top
  6
CONTINUOUS
  66
1
  70
0
  40
0.0065
  41
0.0065
  0
VERTEX
  8
Top
  10
0.4275
  20
0.7709
  42
1
  0
VERTEX
  8
Top
  10
0.434
  20
0.7709
  42
1
  0
VERTEX
  8
Top
  10
0.4275
  20
0.7709
  42
1
  0
SEQEND
  0
POLYLINE
  8
Top
  6
CONTINUOUS
  66
1
  70
0
  40
0.013
  41
0.013
  0
VERTEX
  8
Top
  10
1.2024
  20
0.3937
  42
0
  0
VERTEX
  8
Top
  10
1.2024
  20
0.4764
  42
0
  0
SEQEND
  0
POLYLINE
  8
Top
  6
CONTINUOUS
  66
1
  70
0
  40
0.0065
  41
0.0065
  0
VERTEX
  8
Top
  10
1.1991
  20
0.3937
  42
1
  0
VERTEX
  8
Top
  10
1.2056
  20
0.3937
  42
1
  0
VERTEX
  8
Top
  10
1.1991
  20
0.3937
  42
1
  0
SEQEND
  0
POLYLINE
  8
Top
  6
CONTINUOUS
  66
1
  70
0
  40
0.0065
  41
0.0065
  0
VERTEX
  8
Top
  10
1.1991
  20
0.4764
  42
1
  0
VERTEX
  8
Top
  10
1.2056
  20
0.4764
  42
1
  0
VERTEX
  8
Top
  10
1.1991
  20
0.4764
  42
1
  0
SEQEND
  0
POLYLINE
  8
Top
  6
CONTINUOUS
  66
1
  70
0
  40
0.013
  41
0.013
  0
VERTEX
  8
Top
  10
1.2024
  20
0.4764
  42
0
  0
VERTEX
  8
Top
  10
0.9622
  20
0.4764
  42
0
  0
SEQEND
  0
POLYLINE
  8
Top
  6
CONTINUOUS
  66
1
  70
0
  40
0.0065
  41
0.0065
  0
VERTEX
  8
Top
  10
1.1991
  20
0.4764
  42
1
  0
VERTEX
  8
Top
  10
1.2056
  20
0.4764
  42
1
  0
VERTEX
  8
Top
  10
1.1991
  20
0.4764
  42
1
  0
SEQEND
  0
POLYLINE
  8
Top
  6
CONTINUOUS
  66
1
  70
0
  40
0.0065
  41
0.0065
  0
VERTEX
  8
Top
  10
0.959
  20
0.4764
  42
1
  0
VERTEX
  8
Top
  10
0.9655
  20
0.4764
  42
1
  0
VERTEX
  8
Top
  10
0.959
  20
0.4764
  42
1
  0
SEQEND
  0
POLYLINE
  8
Top
  6
CONTINUOUS
  66
1
  70
0
  40
0.013
  41
0.013
  0
VERTEX
  8
Top
  10
0.9622
  20
0.4764
  42
0
  0
VERTEX
  8
Top
  10
0.9622
  20
0.0945
  42
0
  0
SEQEND
  0
POLYLINE
  8
Top
  6
CONTINUOUS
  66
1
  70
0
  40
0.0065
  41
0.0065
  0
VERTEX
  8
Top
  10
0.959
  20
0.4764
  42
1
  0
VERTEX
  8
Top
  10
0.9655
  20
0.4764
  42
1
  0
VERTEX
  8
Top
  10
0.959
  20
0.4764
  42
1
  0
SEQEND
  0
POLYLINE
  8
Top
  6
CONTINUOUS
  66
1
  70
0
  40
0.0065
  41
0.0065
  0
VERTEX
  8
Top
  10
0.959
  20
0.0945
  42
1
  0
VERTEX
  8
Top
  10
0.9655
  20
0.0945
  42
1
  0
VERTEX
  8
Top
  10
0.959
  20
0.0945
  42
1
  0
SEQEND
  0
POLYLINE
  8
Top
  6
CONTINUOUS
  66
1
  70
0
  40
0.013
  41
0.013
  0
VERTEX
  8
Top
  10
0.9622
  20
0.0945
  42
0
  0
VERTEX
  8
Top
  10
0.1709
  20
0.0945
  42
0
  0
SEQEND
  0
POLYLINE
  8
Top
  6
CONTINUOUS
  66
1
  70
0
  40
0.0065
  41
0.0065
  0
VERTEX
  8
Top
  10
0.959
  20
0.0945
  42
1
  0
VERTEX
  8
Top
  10
0.9655
  20
0.0945
  42
1
  0
VERTEX
  8
Top
  10
0.959
  20
0.0945
  42
1
  0
SEQEND
  0
POLYLINE
  8
Top
  6
CONTINUOUS
  66
1
  70
0
  40
0.0065
  41
0.0065
  0
VERTEX
  8
Top
  10
0.1676
  20
0.0945
  42
1
  0
VERTEX
  8
Top
  10
0.1741
  20
0.0945
  42
1
  0
VERTEX
  8
Top
  10
0.1676
  20
0.0945
  42
1
  0
SEQEND
  0
POLYLINE
  8
Top
  6
CONTINUOUS
  66
1
  70
0
  40
0.013
  41
0.013
  0
VERTEX
  8
Top
  10
0.1709
  20
0.0945
  42
0
  0
VERTEX
  8
Top
  10
0.1709
  20
0.8898
  42
0
  0
SEQEND
  0
POLYLINE
  8
Top
  6
CONTINUOUS
  66
1
  70
0
  40
0.0065
  41
0.0065
  0
VERTEX
  8
Top
  10
0.1676
  20
0.0945
  42
1
  0
VERTEX
  8
Top
  10
0.1741
  20
0.0945
  42
1
  0
VERTEX
  8
Top
  10
0.1676
  20
0.0945
  42
1
  0
SEQEND
  0
POLYLINE
  8
Top
  6
CONTINUOUS
  66
1
  70
0
  40
0.0065
  41
0.0065
  0
VERTEX
  8
Top
  10
0.1676
  20
0.8898
  42
1
  0
VERTEX
  8
Top
  10
0.1741
  20
0.8898
  42
1
  0
VERTEX
  8
Top
  10
0.1676
  20
0.8898
  42
1
  0
SEQEND
  0
POLYLINE
  8
Top
  6
CONTINUOUS
  66
1
  70
0
  40
0.013
  41
0.013
  0
VERTEX
  8
Top
  10
0.1709
  20
0.8898
  42
0
  0
VERTEX
  8
Top
  10
0.4118
  20
0.8898
  42
0
  0
SEQEND
  0
POLYLINE
  8
Top
  6
CONTINUOUS
  66
1
  70
0
  40
0.0065
  41
0.0065
  0
VERTEX
  8
Top
  10
0.1676
  20
0.8898
  42
1
  0
VERTEX
  8
Top
  10
0.1741
  20
0.8898
  42
1
  0
VERTEX
  8
Top
  10
0.1676
  20
0.8898
  42
1
  0
SEQEND
  0
POLYLINE
  8
Top
  6
CONTINUOUS
  66
1
  70
0
  40
0.0065
  41
0.0065
  0
VERTEX
  8
Top
  10
0.4086
  20
0.8898
  42
1
  0
VERTEX
  8
Top
  10
0.4151
  20
0.8898
  42
1
  0
VERTEX
  8
Top
  10
0.4086
  20
0.8898
  42
1
  0
SEQEND
  0
POLYLINE
  8
Top
  6
CONTINUOUS
  66
1
  70
0
  40
0.013
  41
0.013
  0
VERTEX
  8
Top
  10
0.4118
  20
0.8898
  42
0
  0
VERTEX
  8
Top
  10
0.4307
  20
0.8709
  42
0
  0
SEQEND
  0
POLYLINE
  8
Top
  6
CONTINUOUS
  66
1
  70
0
  40
0.0065
  41
0.0065
  0
VERTEX
  8
Top
  10
0.4086
  20
0.8898
  42
1
  0
VERTEX
  8
Top
  10
0.4151
  20
0.8898
  42
1
  0
VERTEX
  8
Top
  10
0.4086
  20
0.8898
  42
1
  0
SEQEND
  0
POLYLINE
  8
Top
  6
CONTINUOUS
  66
1
  70
0
  40
0.0065
  41
0.0065
  0
VERTEX
  8
Top
  10
0.4275
  20
0.8709
  42
1
  0
VERTEX
  8
Top
  10
0.434
  20
0.8709
  42
1
  0
VERTEX
  8
Top
  10
0.4275
  20
0.8709
  42
1
  0
SEQEND
  0
POLYLINE
  8
Top
  6
CONTINUOUS
  66
1
  70
0
  40
0.013
  41
0.013
  0
VERTEX
  8
Top
  10
1.1
  20
0.3937
  42
0
  0
VERTEX
  8
Top
  10
1.1
  20
0.111
  42
0
  0
SEQEND
  0
POLYLINE
  8
Top
  6
CONTINUOUS
  66
1
  70
0
  40
0.0065
  41
0.0065
  0
VERTEX
  8
Top
  10
1.0968
  20
0.3937
  42
1
  0
VERTEX
  8
Top
  10
1.1032
  20
0.3937
  42
1
  0
VERTEX
  8
Top
  10
1.0968
  20
0.3937
  42
1
  0
SEQEND
  0
POLYLINE
  8
Top
  6
CONTINUOUS
  66
1
  70
0
  40
0.0065
  41
0.0065
  0
VERTEX
  8
Top
  10
1.0968
  20
0.111
  42
1
  0
VERTEX
  8
Top
  10
1.1032
  20
0.111
  42
1
  0
VERTEX
  8
Top
  10
1.0968
  20
0.111
  42
1
  0
SEQEND
  0
POLYLINE
  8
Top
  6
CONTINUOUS
  66
1
  70
0
  40
0.013
  41
0.013
  0
VERTEX
  8
Top
  10
1.1
  20
0.111
  42
0
  0
VERTEX
  8
Top
  10
1.0953
  20
0.1063
  42
0
  0
SEQEND
  0
POLYLINE
  8
Top
  6
CONTINUOUS
  66
1
  70
0
  40
0.0065
  41
0.0065
  0
VERTEX
  8
Top
  10
1.0968
  20
0.111
  42
1
  0
VERTEX
  8
Top
  10
1.1032
  20
0.111
  42
1
  0
VERTEX
  8
Top
  10
1.0968
  20
0.111
  42
1
  0
SEQEND
  0
POLYLINE
  8
Top
  6
CONTINUOUS
  66
1
  70
0
  40
0.0065
  41
0.0065
  0
VERTEX
  8
Top
  10
1.092
  20
0.1063
  42
1
  0
VERTEX
  8
Top
  10
1.0985
  20
0.1063
  42
1
  0
VERTEX
  8
Top
  10
1.092
  20
0.1063
  42
1
  0
SEQEND
  0
POLYLINE
  8
Top
  6
CONTINUOUS
  66
1
  70
0
  40
0.013
  41
0.013
  0
VERTEX
  8
Top
  10
1.1768
  20
0.3937
  42
0
  0
VERTEX
  8
Top
  10
1.1768
  20
0.3031
  42
0
  0
SEQEND
  0
POLYLINE
  8
Top
  6
CONTINUOUS
  66
1
  70
0
  40
0.0065
  41
0.0065
  0
VERTEX
  8
Top
  10
1.1735
  20
0.3937
  42
1
  0
VERTEX
  8
Top
  10
1.18
  20
0.3937
  42
1
  0
VERTEX
  8
Top
  10
1.1735
  20
0.3937
  42
1
  0
SEQEND
  0
POLYLINE
  8
Top
  6
CONTINUOUS
  66
1
  70
0
  40
0.0065
  41
0.0065
  0
VERTEX
  8
Top
  10
1.1735
  20
0.3031
  42
1
  0
VERTEX
  8
Top
  10
1.18
  20
0.3031
  42
1
  0
VERTEX
  8
Top
  10
1.1735
  20
0.3031
  42
1
  0
SEQEND
  0
POLYLINE
  8
Top
  6
CONTINUOUS
  66
1
  70
0
  40
0.013
  41
0.013
  0
VERTEX
  8
Top
  10
1.1768
  20
0.3031
  42
0
  0
VERTEX
  8
Top
  10
1.3913
  20
0.3031
  42
0
  0
SEQEND
  0
POLYLINE
  8
Top
  6
CONTINUOUS
  66
1
  70
0
  40
0.0065
  41
0.0065
  0
VERTEX
  8
Top
  10
1.1735
  20
0.3031
  42
1
  0
VERTEX
  8
Top
  10
1.18
  20
0.3031
  42
1
  0
VERTEX
  8
Top
  10
1.1735
  20
0.3031
  42
1
  0
SEQEND
  0
POLYLINE
  8
Top
  6
CONTINUOUS
  66
1
  70
0
  40
0.0065
  41
0.0065
  0
VERTEX
  8
Top
  10
1.3881
  20
0.3031
  42
1
  0
VERTEX
  8
Top
  10
1.3946
  20
0.3031
  42
1
  0
VERTEX
  8
Top
  10
1.3881
  20
0.3031
  42
1
  0
SEQEND
  0
POLYLINE
  8
Top
  6
CONTINUOUS
  66
1
  70
0
  40
0.013
  41
0.013
  0
VERTEX
  8
Top
  10
1.3303
  20
0.3937
  42
0
  0
VERTEX
  8
Top
  10
1.3303
  20
0.4409
  42
0
  0
SEQEND
  0
POLYLINE
  8
Top
  6
CONTINUOUS
  66
1
  70
0
  40
0.0065
  41
0.0065
  0
VERTEX
  8
Top
  10
1.3271
  20
0.3937
  42
1
  0
VERTEX
  8
Top
  10
1.3336
  20
0.3937
  42
1
  0
VERTEX
  8
Top
  10
1.3271
  20
0.3937
  42
1
  0
SEQEND
  0
POLYLINE
  8
Top
  6
CONTINUOUS
  66
1
  70
0
  40
0.0065
  41
0.0065
  0
VERTEX
  8
Top
  10
1.3271
  20
0.4409
  42
1
  0
VERTEX
  8
Top
  10
1.3336
  20
0.4409
  42
1
  0
VERTEX
  8
Top
  10
1.3271
  20
0.4409
  42
1
  0
SEQEND
  0
POLYLINE
  8
Top
  6
CONTINUOUS
  66
1
  70
0
  40
0.013
  41
0.013
  0
VERTEX
  8
Top
  10
1.3303
  20
0.4409
  42
0
  0
VERTEX
  8
Top
  10
1.5488
  20
0.4409
  42
0
  0
SEQEND
  0
POLYLINE
  8
Top
  6
CONTINUOUS
  66
1
  70
0
  40
0.0065
  41
0.0065
  0
VERTEX
  8
Top
  10
1.3271
  20
0.4409
  42
1
  0
VERTEX
  8
Top
  10
1.3336
  20
0.4409
  42
1
  0
VERTEX
  8
Top
  10
1.3271
  20
0.4409
  42
1
  0
SEQEND
  0
POLYLINE
  8
Top
  6
CONTINUOUS
  66
1
  70
0
  40
0.0065
  41
0.0065
  0
VERTEX
  8
Top
  10
1.5456
  20
0.4409
  42
1
  0
VERTEX
  8
Top
  10
1.5521
  20
0.4409
  42
1
  0
VERTEX
  8
Top
  10
1.5456
  20
0.4409
  42
1
  0
SEQEND
  0
POLYLINE
  8
Top
  6
CONTINUOUS
  66
1
  70
0
  40
0.013
  41
0.013
  0
VERTEX
  8
Top
  10
1.5488
  20
0.4409
  42
0
  0
VERTEX
  8
Top
  10
1.5488
  20
0.5551
  42
0
  0
SEQEND
  0
POLYLINE
  8
Top
  6
CONTINUOUS
  66
1
  70
0
  40
0.0065
  41
0.0065
  0
VERTEX
  8
Top
  10
1.5456
  20
0.4409
  42
1
  0
VERTEX
  8
Top
  10
1.5521
  20
0.4409
  42
1
  0
VERTEX
  8
Top
  10
1.5456
  20
0.4409
  42
1
  0
SEQEND
  0
POLYLINE
  8
Top
  6
CONTINUOUS
  66
1
  70
0
  40
0.0065
  41
0.0065
  0
VERTEX
  8
Top
  10
1.5456
  20
0.5551
  42
1
  0
VERTEX
  8
Top
  10
1.5521
  20
0.5551
  42
1
  0
VERTEX
  8
Top
  10
1.5456
  20
0.5551
  42
1
  0
SEQEND
  0
POLYLINE
  8
Top
  6
CONTINUOUS
  66
1
  70
0
  40
0.013
  41
0.013
  0
VERTEX
  8
Top
  10
1.5488
  20
0.5551
  42
0
  0
VERTEX
  8
Top
  10
1.7024
  20
0.5551
  42
0
  0
SEQEND
  0
POLYLINE
  8
Top
  6
CONTINUOUS
  66
1
  70
0
  40
0.0065
  41
0.0065
  0
VERTEX
  8
Top
  10
1.5456
  20
0.5551
  42
1
  0
VERTEX
  8
Top
  10
1.5521
  20
0.5551
  42
1
  0
VERTEX
  8
Top
  10
1.5456
  20
0.5551
  42
1
  0
SEQEND
  0
POLYLINE
  8
Top
  6
CONTINUOUS
  66
1
  70
0
  40
0.0065
  41
0.0065
  0
VERTEX
  8
Top
  10
1.6991
  20
0.5551
  42
1
  0
VERTEX
  8
Top
  10
1.7056
  20
0.5551
  42
1
  0
VERTEX
  8
Top
  10
1.6991
  20
0.5551
  42
1
  0
SEQEND
  0
POLYLINE
  8
Top
  6
CONTINUOUS
  66
1
  70
0
  40
0.013
  41
0.013
  0
VERTEX
  8
Top
  10
1.7024
  20
0.5551
  42
0
  0
VERTEX
  8
Top
  10
1.7024
  20
0.0591
  42
0
  0
SEQEND
  0
POLYLINE
  8
Top
  6
CONTINUOUS
  66
1
  70
0
  40
0.0065
  41
0.0065
  0
VERTEX
  8
Top
  10
1.6991
  20
0.5551
  42
1
  0
VERTEX
  8
Top
  10
1.7056
  20
0.5551
  42
1
  0
VERTEX
  8
Top
  10
1.6991
  20
0.5551
  42
1
  0
SEQEND
  0
POLYLINE
  8
Top
  6
CONTINUOUS
  66
1
  70
0
  40
0.0065
  41
0.0065
  0
VERTEX
  8
Top
  10
1.6991
  20
0.0591
  42
1
  0
VERTEX
  8
Top
  10
1.7056
  20
0.0591
  42
1
  0
VERTEX
  8
Top
  10
1.6991
  20
0.0591
  42
1
  0
SEQEND
  0
POLYLINE
  8
Top
  6
CONTINUOUS
  66
1
  70
0
  40
0.013
  41
0.013
  0
VERTEX
  8
Top
  10
1.7024
  20
0.0591
  42
0
  0
VERTEX
  8
Top
  10
1.4425
  20
0.0591
  42
0
  0
SEQEND
  0
POLYLINE
  8
Top
  6
CONTINUOUS
  66
1
  70
0
  40
0.0065
  41
0.0065
  0
VERTEX
  8
Top
  10
1.6991
  20
0.0591
  42
1
  0
VERTEX
  8
Top
  10
1.7056
  20
0.0591
  42
1
  0
VERTEX
  8
Top
  10
1.6991
  20
0.0591
  42
1
  0
SEQEND
  0
POLYLINE
  8
Top
  6
CONTINUOUS
  66
1
  70
0
  40
0.0065
  41
0.0065
  0
VERTEX
  8
Top
  10
1.4393
  20
0.0591
  42
1
  0
VERTEX
  8
Top
  10
1.4458
  20
0.0591
  42
1
  0
VERTEX
  8
Top
  10
1.4393
  20
0.0591
  42
1
  0
SEQEND
  0
POLYLINE
  8
Top
  6
CONTINUOUS
  66
1
  70
0
  40
0.013
  41
0.013
  0
VERTEX
  8
Top
  10
1.4425
  20
0.0591
  42
0
  0
VERTEX
  8
Top
  10
1.3953
  20
0.1063
  42
0
  0
SEQEND
  0
POLYLINE
  8
Top
  6
CONTINUOUS
  66
1
  70
0
  40
0.0065
  41
0.0065
  0
VERTEX
  8
Top
  10
1.4393
  20
0.0591
  42
1
  0
VERTEX
  8
Top
  10
1.4458
  20
0.0591
  42
1
  0
VERTEX
  8
Top
  10
1.4393
  20
0.0591
  42
1
  0
SEQEND
  0
POLYLINE
  8
Top
  6
CONTINUOUS
  66
1
  70
0
  40
0.0065
  41
0.0065
  0
VERTEX
  8
Top
  10
1.392
  20
0.1063
  42
1
  0
VERTEX
  8
Top
  10
1.3985
  20
0.1063
  42
1
  0
VERTEX
  8
Top
  10
1.392
  20
0.1063
  42
1
  0
SEQEND
  0
POLYLINE
  8
Top
  6
CONTINUOUS
  66
1
  70
0
  40
0.013
  41
0.013
  0
VERTEX
  8
Top
  10
1.3303
  20
0.6221
  42
0
  0
VERTEX
  8
Top
  10
1.3303
  20
0.8839
  42
0
  0
SEQEND
  0
POLYLINE
  8
Top
  6
CONTINUOUS
  66
1
  70
0
  40
0.0065
  41
0.0065
  0
VERTEX
  8
Top
  10
1.3271
  20
0.6221
  42
1
  0
VERTEX
  8
Top
  10
1.3336
  20
0.6221
  42
1
  0
VERTEX
  8
Top
  10
1.3271
  20
0.6221
  42
1
  0
SEQEND
  0
POLYLINE
  8
Top
  6
CONTINUOUS
  66
1
  70
0
  40
0.0065
  41
0.0065
  0
VERTEX
  8
Top
  10
1.3271
  20
0.8839
  42
1
  0
VERTEX
  8
Top
  10
1.3336
  20
0.8839
  42
1
  0
VERTEX
  8
Top
  10
1.3271
  20
0.8839
  42
1
  0
SEQEND
  0
POLYLINE
  8
Top
  6
CONTINUOUS
  66
1
  70
0
  40
0.013
  41
0.013
  0
VERTEX
  8
Top
  10
1.3303
  20
0.8839
  42
0
  0
VERTEX
  8
Top
  10
1.3283
  20
0.8858
  42
0
  0
SEQEND
  0
POLYLINE
  8
Top
  6
CONTINUOUS
  66
1
  70
0
  40
0.0065
  41
0.0065
  0
VERTEX
  8
Top
  10
1.3271
  20
0.8839
  42
1
  0
VERTEX
  8
Top
  10
1.3336
  20
0.8839
  42
1
  0
VERTEX
  8
Top
  10
1.3271
  20
0.8839
  42
1
  0
SEQEND
  0
POLYLINE
  8
Top
  6
CONTINUOUS
  66
1
  70
0
  40
0.0065
  41
0.0065
  0
VERTEX
  8
Top
  10
1.3251
  20
0.8858
  42
1
  0
VERTEX
  8
Top
  10
1.3316
  20
0.8858
  42
1
  0
VERTEX
  8
Top
  10
1.3251
  20
0.8858
  42
1
  0
SEQEND
  0
POLYLINE
  8
Top
  6
CONTINUOUS
  66
1
  70
0
  40
0.013
  41
0.013
  0
VERTEX
  8
Top
  10
1.3283
  20
0.8858
  42
0
  0
VERTEX
  8
Top
  10
1.611
  20
0.8858
  42
0
  0
SEQEND
  0
POLYLINE
  8
Top
  6
CONTINUOUS
  66
1
  70
0
  40
0.0065
  41
0.0065
  0
VERTEX
  8
Top
  10
1.3251
  20
0.8858
  42
1
  0
VERTEX
  8
Top
  10
1.3316
  20
0.8858
  42
1
  0
VERTEX
  8
Top
  10
1.3251
  20
0.8858
  42
1
  0
SEQEND
  0
POLYLINE
  8
Top
  6
CONTINUOUS
  66
1
  70
0
  40
0.0065
  41
0.0065
  0
VERTEX
  8
Top
  10
1.6078
  20
0.8858
  42
1
  0
VERTEX
  8
Top
  10
1.6143
  20
0.8858
  42
1
  0
VERTEX
  8
Top
  10
1.6078
  20
0.8858
  42
1
  0
SEQEND
  0
POLYLINE
  8
Top
  6
CONTINUOUS
  66
1
  70
0
  40
0.013
  41
0.013
  0
VERTEX
  8
Top
  10
1.611
  20
0.8858
  42
0
  0
VERTEX
  8
Top
  10
1.615
  20
0.8819
  42
0
  0
SEQEND
  0
POLYLINE
  8
Top
  6
CONTINUOUS
  66
1
  70
0
  40
0.0065
  41
0.0065
  0
VERTEX
  8
Top
  10
1.6078
  20
0.8858
  42
1
  0
VERTEX
  8
Top
  10
1.6143
  20
0.8858
  42
1
  0
VERTEX
  8
Top
  10
1.6078
  20
0.8858
  42
1
  0
SEQEND
  0
POLYLINE
  8
Top
  6
CONTINUOUS
  66
1
  70
0
  40
0.0065
  41
0.0065
  0
VERTEX
  8
Top
  10
1.6117
  20
0.8819
  42
1
  0
VERTEX
  8
Top
  10
1.6182
  20
0.8819
  42
1
  0
VERTEX
  8
Top
  10
1.6117
  20
0.8819
  42
1
  0
SEQEND
  0
POLYLINE
  8
Top
  6
CONTINUOUS
  66
1
  70
0
  40
0.013
  41
0.013
  0
VERTEX
  8
Top
  10
1.3047
  20
0.622
  42
0
  0
VERTEX
  8
Top
  10
1.3047
  20
0.9882
  42
0
  0
SEQEND
  0
POLYLINE
  8
Top
  6
CONTINUOUS
  66
1
  70
0
  40
0.0065
  41
0.0065
  0
VERTEX
  8
Top
  10
1.3015
  20
0.622
  42
1
  0
VERTEX
  8
Top
  10
1.308
  20
0.622
  42
1
  0
VERTEX
  8
Top
  10
1.3015
  20
0.622
  42
1
  0
SEQEND
  0
POLYLINE
  8
Top
  6
CONTINUOUS
  66
1
  70
0
  40
0.0065
  41
0.0065
  0
VERTEX
  8
Top
  10
1.3015
  20
0.9882
  42
1
  0
VERTEX
  8
Top
  10
1.308
  20
0.9882
  42
1
  0
VERTEX
  8
Top
  10
1.3015
  20
0.9882
  42
1
  0
SEQEND
  0
POLYLINE
  8
Top
  6
CONTINUOUS
  66
1
  70
0
  40
0.013
  41
0.013
  0
VERTEX
  8
Top
  10
1.3047
  20
0.9882
  42
0
  0
VERTEX
  8
Top
  10
1.3087
  20
0.9921
  42
0
  0
SEQEND
  0
POLYLINE
  8
Top
  6
CONTINUOUS
  66
1
  70
0
  40
0.0065
  41
0.0065
  0
VERTEX
  8
Top
  10
1.3015
  20
0.9882
  42
1
  0
VERTEX
  8
Top
  10
1.308
  20
0.9882
  42
1
  0
VERTEX
  8
Top
  10
1.3015
  20
0.9882
  42
1
  0
SEQEND
  0
POLYLINE
  8
Top
  6
CONTINUOUS
  66
1
  70
0
  40
0.0065
  41
0.0065
  0
VERTEX
  8
Top
  10
1.3054
  20
0.9921
  42
1
  0
VERTEX
  8
Top
  10
1.3119
  20
0.9921
  42
1
  0
VERTEX
  8
Top
  10
1.3054
  20
0.9921
  42
1
  0
SEQEND
  0
POLYLINE
  8
Top
  6
CONTINUOUS
  66
1
  70
0
  40
0.013
  41
0.013
  0
VERTEX
  8
Top
  10
1.3087
  20
0.9921
  42
0
  0
VERTEX
  8
Top
  10
1.6047
  20
0.9921
  42
0
  0
SEQEND
  0
POLYLINE
  8
Top
  6
CONTINUOUS
  66
1
  70
0
  40
0.0065
  41
0.0065
  0
VERTEX
  8
Top
  10
1.3054
  20
0.9921
  42
1
  0
VERTEX
  8
Top
  10
1.3119
  20
0.9921
  42
1
  0
VERTEX
  8
Top
  10
1.3054
  20
0.9921
  42
1
  0
SEQEND
  0
POLYLINE
  8
Top
  6
CONTINUOUS
  66
1
  70
0
  40
0.0065
  41
0.0065
  0
VERTEX
  8
Top
  10
1.6015
  20
0.9921
  42
1
  0
VERTEX
  8
Top
  10
1.608
  20
0.9921
  42
1
  0
VERTEX
  8
Top
  10
1.6015
  20
0.9921
  42
1
  0
SEQEND
  0
POLYLINE
  8
Top
  6
CONTINUOUS
  66
1
  70
0
  40
0.013
  41
0.013
  0
VERTEX
  8
Top
  10
1.6047
  20
0.9921
  42
0
  0
VERTEX
  8
Top
  10
1.615
  20
0.9819
  42
0
  0
SEQEND
  0
POLYLINE
  8
Top
  6
CONTINUOUS
  66
1
  70
0
  40
0.0065
  41
0.0065
  0
VERTEX
  8
Top
  10
1.6015
  20
0.9921
  42
1
  0
VERTEX
  8
Top
  10
1.608
  20
0.9921
  42
1
  0
VERTEX
  8
Top
  10
1.6015
  20
0.9921
  42
1
  0
SEQEND
  0
POLYLINE
  8
Top
  6
CONTINUOUS
  66
1
  70
0
  40
0.0065
  41
0.0065
  0
VERTEX
  8
Top
  10
1.6117
  20
0.9819
  42
1
  0
VERTEX
  8
Top
  10
1.6182
  20
0.9819
  42
1
  0
VERTEX
  8
Top
  10
1.6117
  20
0.9819
  42
1
  0
SEQEND
  0
POLYLINE
  8
Top
  6
CONTINUOUS
  66
1
  70
0
  40
0.013
  41
0.013
  0
VERTEX
  8
Top
  10
1.2791
  20
0.622
  42
0
  0
VERTEX
  8
Top
  10
1.2791
  20
1.061
  42
0
  0
SEQEND
  0
POLYLINE
  8
Top
  6
CONTINUOUS
  66
1
  70
0
  40
0.0065
  41
0.0065
  0
VERTEX
  8
Top
  10
1.2759
  20
0.622
  42
1
  0
VERTEX
  8
Top
  10
1.2824
  20
0.622
  42
1
  0
VERTEX
  8
Top
  10
1.2759
  20
0.622
  42
1
  0
SEQEND
  0
POLYLINE
  8
Top
  6
CONTINUOUS
  66
1
  70
0
  40
0.0065
  41
0.0065
  0
VERTEX
  8
Top
  10
1.2759
  20
1.061
  42
1
  0
VERTEX
  8
Top
  10
1.2824
  20
1.061
  42
1
  0
VERTEX
  8
Top
  10
1.2759
  20
1.061
  42
1
  0
SEQEND
  0
POLYLINE
  8
Top
  6
CONTINUOUS
  66
1
  70
0
  40
0.013
  41
0.013
  0
VERTEX
  8
Top
  10
1.2791
  20
1.061
  42
0
  0
VERTEX
  8
Top
  10
1.285
  20
1.0669
  42
0
  0
SEQEND
  0
POLYLINE
  8
Top
  6
CONTINUOUS
  66
1
  70
0
  40
0.0065
  41
0.0065
  0
VERTEX
  8
Top
  10
1.2759
  20
1.061
  42
1
  0
VERTEX
  8
Top
  10
1.2824
  20
1.061
  42
1
  0
VERTEX
  8
Top
  10
1.2759
  20
1.061
  42
1
  0
SEQEND
  0
POLYLINE
  8
Top
  6
CONTINUOUS
  66
1
  70
0
  40
0.0065
  41
0.0065
  0
VERTEX
  8
Top
  10
1.2818
  20
1.0669
  42
1
  0
VERTEX
  8
Top
  10
1.2883
  20
1.0669
  42
1
  0
VERTEX
  8
Top
  10
1.2818
  20
1.0669
  42
1
  0
SEQEND
  0
POLYLINE
  8
Top
  6
CONTINUOUS
  66
1
  70
0
  40
0.013
  41
0.013
  0
VERTEX
  8
Top
  10
1.285
  20
1.0669
  42
0
  0
VERTEX
  8
Top
  10
1.7457
  20
1.0669
  42
0
  0
SEQEND
  0
POLYLINE
  8
Top
  6
CONTINUOUS
  66
1
  70
0
  40
0.0065
  41
0.0065
  0
VERTEX
  8
Top
  10
1.2818
  20
1.0669
  42
1
  0
VERTEX
  8
Top
  10
1.2883
  20
1.0669
  42
1
  0
VERTEX
  8
Top
  10
1.2818
  20
1.0669
  42
1
  0
SEQEND
  0
POLYLINE
  8
Top
  6
CONTINUOUS
  66
1
  70
0
  40
0.0065
  41
0.0065
  0
VERTEX
  8
Top
  10
1.7424
  20
1.0669
  42
1
  0
VERTEX
  8
Top
  10
1.7489
  20
1.0669
  42
1
  0
VERTEX
  8
Top
  10
1.7424
  20
1.0669
  42
1
  0
SEQEND
  0
POLYLINE
  8
Top
  6
CONTINUOUS
  66
1
  70
0
  40
0.013
  41
0.013
  0
VERTEX
  8
Top
  10
1.7457
  20
1.0669
  42
0
  0
VERTEX
  8
Top
  10
1.7457
  20
0.0394
  42
0
  0
SEQEND
  0
POLYLINE
  8
Top
  6
CONTINUOUS
  66
1
  70
0
  40
0.0065
  41
0.0065
  0
VERTEX
  8
Top
  10
1.7424
  20
1.0669
  42
1
  0
VERTEX
  8
Top
  10
1.7489
  20
1.0669
  42
1
  0
VERTEX
  8
Top
  10
1.7424
  20
1.0669
  42
1
  0
SEQEND
  0
POLYLINE
  8
Top
  6
CONTINUOUS
  66
1
  70
0
  40
0.0065
  41
0.0065
  0
VERTEX
  8
Top
  10
1.7424
  20
0.0394
  42
1
  0
VERTEX
  8
Top
  10
1.7489
  20
0.0394
  42
1
  0
VERTEX
  8
Top
  10
1.7424
  20
0.0394
  42
1
  0
SEQEND
  0
POLYLINE
  8
Top
  6
CONTINUOUS
  66
1
  70
0
  40
0.013
  41
0.013
  0
VERTEX
  8
Top
  10
1.7457
  20
0.0394
  42
0
  0
VERTEX
  8
Top
  10
1.722
  20
0.0157
  42
0
  0
SEQEND
  0
POLYLINE
  8
Top
  6
CONTINUOUS
  66
1
  70
0
  40
0.0065
  41
0.0065
  0
VERTEX
  8
Top
  10
1.7424
  20
0.0394
  42
1
  0
VERTEX
  8
Top
  10
1.7489
  20
0.0394
  42
1
  0
VERTEX
  8
Top
  10
1.7424
  20
0.0394
  42
1
  0
SEQEND
  0
POLYLINE
  8
Top
  6
CONTINUOUS
  66
1
  70
0
  40
0.0065
  41
0.0065
  0
VERTEX
  8
Top
  10
1.7188
  20
0.0157
  42
1
  0
VERTEX
  8
Top
  10
1.7253
  20
0.0157
  42
1
  0
VERTEX
  8
Top
  10
1.7188
  20
0.0157
  42
1
  0
SEQEND
  0
POLYLINE
  8
Top
  6
CONTINUOUS
  66
1
  70
0
  40
0.013
  41
0.013
  0
VERTEX
  8
Top
  10
1.722
  20
0.0157
  42
0
  0
VERTEX
  8
Top
  10
1.3047
  20
0.0157
  42
0
  0
SEQEND
  0
POLYLINE
  8
Top
  6
CONTINUOUS
  66
1
  70
0
  40
0.0065
  41
0.0065
  0
VERTEX
  8
Top
  10
1.7188
  20
0.0157
  42
1
  0
VERTEX
  8
Top
  10
1.7253
  20
0.0157
  42
1
  0
VERTEX
  8
Top
  10
1.7188
  20
0.0157
  42
1
  0
SEQEND
  0
POLYLINE
  8
Top
  6
CONTINUOUS
  66
1
  70
0
  40
0.0065
  41
0.0065
  0
VERTEX
  8
Top
  10
1.3015
  20
0.0157
  42
1
  0
VERTEX
  8
Top
  10
1.308
  20
0.0157
  42
1
  0
VERTEX
  8
Top
  10
1.3015
  20
0.0157
  42
1
  0
SEQEND
  0
POLYLINE
  8
Top
  6
CONTINUOUS
  66
1
  70
0
  40
0.013
  41
0.013
  0
VERTEX
  8
Top
  10
1.3047
  20
0.0157
  42
0
  0
VERTEX
  8
Top
  10
1.2969
  20
0.0236
  42
0
  0
SEQEND
  0
POLYLINE
  8
Top
  6
CONTINUOUS
  66
1
  70
0
  40
0.0065
  41
0.0065
  0
VERTEX
  8
Top
  10
1.3015
  20
0.0157
  42
1
  0
VERTEX
  8
Top
  10
1.308
  20
0.0157
  42
1
  0
VERTEX
  8
Top
  10
1.3015
  20
0.0157
  42
1
  0
SEQEND
  0
POLYLINE
  8
Top
  6
CONTINUOUS
  66
1
  70
0
  40
0.0065
  41
0.0065
  0
VERTEX
  8
Top
  10
1.2936
  20
0.0236
  42
1
  0
VERTEX
  8
Top
  10
1.3001
  20
0.0236
  42
1
  0
VERTEX
  8
Top
  10
1.2936
  20
0.0236
  42
1
  0
SEQEND
  0
POLYLINE
  8
Top
  6
CONTINUOUS
  66
1
  70
0
  40
0.013
  41
0.013
  0
VERTEX
  8
Top
  10
1.2969
  20
0.0236
  42
0
  0
VERTEX
  8
Top
  10
1.2969
  20
0.1047
  42
0
  0
SEQEND
  0
POLYLINE
  8
Top
  6
CONTINUOUS
  66
1
  70
0
  40
0.0065
  41
0.0065
  0
VERTEX
  8
Top
  10
1.2936
  20
0.0236
  42
1
  0
VERTEX
  8
Top
  10
1.3001
  20
0.0236
  42
1
  0
VERTEX
  8
Top
  10
1.2936
  20
0.0236
  42
1
  0
SEQEND
  0
POLYLINE
  8
Top
  6
CONTINUOUS
  66
1
  70
0
  40
0.0065
  41
0.0065
  0
VERTEX
  8
Top
  10
1.2936
  20
0.1047
  42
1
  0
VERTEX
  8
Top
  10
1.3001
  20
0.1047
  42
1
  0
VERTEX
  8
Top
  10
1.2936
  20
0.1047
  42
1
  0
SEQEND
  0
POLYLINE
  8
Top
  6
CONTINUOUS
  66
1
  70
0
  40
0.013
  41
0.013
  0
VERTEX
  8
Top
  10
1.2969
  20
0.1047
  42
0
  0
VERTEX
  8
Top
  10
1.2953
  20
0.1063
  42
0
  0
SEQEND
  0
POLYLINE
  8
Top
  6
CONTINUOUS
  66
1
  70
0
  40
0.0065
  41
0.0065
  0
VERTEX
  8
Top
  10
1.2936
  20
0.1047
  42
1
  0
VERTEX
  8
Top
  10
1.3001
  20
0.1047
  42
1
  0
VERTEX
  8
Top
  10
1.2936
  20
0.1047
  42
1
  0
SEQEND
  0
POLYLINE
  8
Top
  6
CONTINUOUS
  66
1
  70
0
  40
0.0065
  41
0.0065
  0
VERTEX
  8
Top
  10
1.292
  20
0.1063
  42
1
  0
VERTEX
  8
Top
  10
1.2985
  20
0.1063
  42
1
  0
VERTEX
  8
Top
  10
1.292
  20
0.1063
  42
1
  0
SEQEND
  0
ENDSEC
  0
EOF
