#KHS.svg
<svg
   xmlns:dc="http://purl.org/dc/elements/1.1/"
   xmlns:cc="http://creativecommons.org/ns#"
   xmlns:rdf="http://www.w3.org/1999/02/22-rdf-syntax-ns#"
   xmlns:svg="http://www.w3.org/2000/svg"
   xmlns="http://www.w3.org/2000/svg"
   xmlns:sodipodi="http://sodipodi.sourceforge.net/DTD/sodipodi-0.dtd"
   xmlns:inkscape="http://www.inkscape.org/namespaces/inkscape"
   width="210"
   height="297"
   viewBox="0 0 744.09448819 1052.3622047"
   id="svg2"
   x-ratio="0.15"
   y-ratio="0.15"
   version="1.1"
   inkscape:version="0.91 r13725"
   sodipodi:docname="1111.svg">
  <defs
     id="defs4" />
  <sodipodi:namedview
     id="base"
     pagecolor="#ffffff"
     bordercolor="#666666"
     borderopacity="1.0"
     inkscape:pageopacity="0.0"
     inkscape:pageshadow="2"
     inkscape:zoom="0.35"
     inkscape:cx="375"
     inkscape:cy="520"
     inkscape:document-units="px"
     inkscape:current-layer="layer1"
     showgrid="false"
     inkscape:window-width="1234"
     inkscape:window-height="746"
     inkscape:window-x="-8"
     inkscape:window-y="-8"
     inkscape:window-maximized="1" />
  <metadata
     id="metadata7">
    <rdf:RDF>
      <cc:Work
         rdf:about="">
        <dc:format>image/svg+xml</dc:format>
        <dc:type
           rdf:resource="http://purl.org/dc/dcmitype/StillImage" />
        <dc:title></dc:title>
      </cc:Work>
    </rdf:RDF>
  </metadata>
  <g
     inkscape:label="Layer 1"
     inkscape:groupmode="layer"
     id="layer1">
    <path
       style="fill:#000000"
       d="M 115.4,251.1 C 105.1,246.4 95.87,236.1 88.47,220.9 L 84.47,212.7 L 67.67,212.5 C 48.47,212.1 42.37,210.4 34.07,203.3 C 21.87,192.9 20.17,178.3 29.07,159.3 C 31.07,154.9 34.77,148.6 37.07,145.2 C 39.57,141.9 41.47,139 41.47,138.6 C 41.47,138.2 39.57,135.2 37.07,131.9 C 31.27,123.8 25.57,111.2 24.07,103.5 C 20.77,86.2 29.67,72.2 47.37,66.7 C 54.37,64.4 58.37,64.1 70.17,64.4 L 84.47,64.8 L 87.47,57.9 C 94.67,41.5 107.5,28.3 119.8,24.7 C 125.9,22.9 127.1,22.9 133.1,24.7 C 145.5,28.3 155.8,38.6 164.5,56.2 L 168.8,64.8 L 182.9,64.4 C 194.5,64.1 198.6,64.6 205.3,66.6 C 223,72.1 231.8,85.4 228.9,102.8 C 227.6,110.7 221.9,123.5 215.9,131.9 C 213.5,135.2 211.5,138.2 211.5,138.6 C 211.5,139 213.5,141.9 215.9,145.2 C 225.8,159.1 230.9,175.2 228.9,186.1 C 227.4,193.8 224.9,198.2 218.9,203.3 C 210.6,210.4 204.5,212.1 185.4,212.5 L 168.6,212.7 L 163,223.6 C 157,235.2 147.6,246.1 140.3,249.8 C 134.4,252.8 120.9,253.6 115.4,251.1 Z M 137.6,239.4 C 143.8,235.3 153.1,223.2 156,215.7 C 157.1,212.8 157.9,210.2 157.6,210.1 C 157.4,210 150.1,207.5 141.6,204.6 L 126,199.4 L 119.8,201.9 C 116.3,203.2 109.1,205.7 103.7,207.2 L 93.87,210.1 L 98.07,218.2 C 109.9,240.7 124.2,248.4 137.6,239.4 Z M 79.47,199.8 C 79.37,198.4 77.97,190.8 76.37,182.9 C 73.97,170.9 72.97,168.2 70.27,166.1 C 68.57,164.8 63.07,159.8 58.07,154.9 C 50.67,147.9 48.67,146.6 47.27,147.8 C 46.27,148.7 42.87,154.4 39.57,160.8 C 34.77,170.4 33.77,173.6 33.67,179.4 C 33.57,195.7 44.67,203.1 68.37,202.6 C 78.77,202.3 79.57,202.1 79.47,199.8 Z M 207.3,199.1 C 215.6,195 219,189.6 219,180.3 C 219,176.3 218,170.6 216.9,167.7 C 214.6,161.9 205.5,146.7 204.3,146.7 C 203.9,146.7 199.6,150.6 194.8,155.2 C 189.9,159.8 184.4,164.8 182.6,166.2 C 180,168.2 179,170.4 177.9,177.3 C 177,182.2 175.5,189.3 174.5,193.3 C 173.5,197.3 173,201.2 173.5,201.9 C 174,202.8 178.9,203.1 187.8,202.7 C 198.6,202.2 202.3,201.6 207.3,199.1 Z M 103.7,196.8 C 108.7,195.3 112.8,193.9 112.8,193.7 C 112.8,193.3 109,191.1 104.3,188.4 C 99.67,185.9 93.47,182.2 90.57,180.3 C 87.57,178.3 85.27,177.1 85.27,177.6 C 85.27,177.9 86.37,183.3 87.87,189.4 C 89.97,198.4 90.87,200.4 92.57,200 C 93.67,199.7 98.67,198.2 103.7,196.8 Z M 165.1,189.3 C 166.6,183.2 167.8,177.8 167.8,177.4 C 167.8,176.9 166,177.8 163.9,179.3 C 161.6,180.8 155,184.8 149.1,188.2 C 143.3,191.4 139,194.2 139.6,194.2 C 140.3,194.3 145.4,195.7 150.9,197.3 C 156.4,198.9 161.3,200.3 161.8,200.3 C 162.1,200.4 163.8,195.4 165.1,189.3 Z M 140,181.7 C 146.8,178.2 156.1,172.7 160.9,169.4 L 169.6,163.6 L 170.5,150.6 C 171,143.5 171,132.2 170.5,125.6 L 169.6,113.6 L 160.9,107.6 C 156.1,104.3 146.4,98.7 139.3,95.1 L 126.5,88.6 L 113.7,95.1 C 106.6,98.7 96.87,104.3 92.07,107.6 L 83.37,113.6 L 82.47,126.1 C 81.97,132.9 81.97,144.2 82.47,151.1 L 83.37,163.5 L 91.27,168.9 C 99.97,175.1 123.7,187.8 126.3,187.9 C 127.3,187.9 133.4,185.1 140,181.7 Z M 108,165.2 L 95.27,157.3 L 95.27,141.3 L 95.27,125.2 L 99.87,128.1 C 102.5,129.6 108.7,133.5 113.7,136.5 L 122.8,142.1 L 122.8,157.6 C 122.8,166.1 122.3,172.9 121.8,172.9 C 121.3,172.9 115.1,169.4 108,165.2 Z M 131.5,157.6 L 131.5,142.1 L 143.6,134.6 C 150.4,130.4 156.6,126.7 157.4,126.2 C 158.6,125.4 159,128.8 159,141.3 L 159,157.3 L 146.1,165.2 C 139.1,169.4 132.9,172.9 132.4,172.9 C 131.9,172.9 131.5,166 131.5,157.6 Z M 114.3,126.5 C 107.3,122.2 101.5,118.3 101.5,117.9 C 101.5,117.6 105,115.2 109.3,112.6 C 113.6,110.1 119.4,106.6 122.1,104.9 L 127.1,101.8 L 139.9,109.6 C 146.9,113.8 152.6,117.6 152.8,117.9 C 152.8,118.5 131.1,132.2 127.8,134 C 127.4,134.1 121.3,130.7 114.3,126.5 Z M 72.07,138.6 C 72.07,129.9 71.87,122.9 71.47,122.9 C 71.17,122.9 67.37,126.5 63.07,130.7 L 55.27,138.5 L 62.97,146.3 C 67.27,150.7 71.07,154.2 71.47,154.2 C 71.87,154.2 72.07,147.2 72.07,138.6 Z M 189.9,146.5 L 197.8,138.7 L 190,130.8 C 185.8,126.5 181.9,122.9 181.5,122.9 C 181.1,122.9 180.9,129.9 180.9,138.6 C 180.9,147.2 181.1,154.2 181.5,154.2 C 181.8,154.2 185.6,150.7 189.9,146.5 Z M 56.17,123.5 C 60.17,119.7 65.57,114.8 68.37,112.6 C 73.37,108.8 73.57,108.5 76.37,94.3 C 77.97,86.3 79.57,78.6 79.87,77.1 C 80.47,74.2 80.27,74.2 68.77,74.2 C 44.67,74.2 33.57,81.5 33.67,97.3 C 33.77,100.8 34.77,106.2 35.97,109.2 C 38.17,114.8 47.47,130.4 48.47,130.4 C 48.87,130.4 52.27,127.3 56.17,123.5 Z M 208.8,124.6 C 216.1,113.1 219,105.3 219,97.2 C 219,87.4 215.8,82.3 207.1,77.9 C 201.9,75.3 198.8,74.8 186.6,74.3 L 172.4,74 L 173.1,76.8 C 173.4,78.5 175,86.3 176.6,94.3 C 179.5,108.5 179.6,108.8 184.6,112.6 C 187.4,114.8 192.8,119.6 196.5,123.5 C 200.3,127.2 203.8,130.3 204.1,130.3 C 204.6,130.4 206.8,127.8 208.8,124.6 Z M 91.77,95.8 C 94.67,94.1 100.9,90.4 105.6,87.9 L 114,83.3 L 103,80.1 C 96.87,78.2 91.57,76.7 91.17,76.7 C 90.77,76.7 89.57,80.8 88.37,85.8 C 87.17,90.7 85.97,95.8 85.67,97.1 C 84.87,99.9 85.57,99.8 91.77,95.8 Z M 167.4,97.1 C 167,95.8 165.8,90.7 164.6,85.7 C 162.9,78.5 162,76.7 160.4,77.2 C 159.3,77.4 154,79 148.6,80.6 L 138.9,83.3 L 147.5,87.9 C 152.1,90.4 158.3,94.1 160.9,95.8 C 166.9,99.7 168.1,99.9 167.4,97.1 Z M 143,72.1 C 152.5,69 157.8,66.7 157.8,65.6 C 157.8,63.2 149.8,49.4 145.6,44.6 C 130.5,27.2 113.7,31.4 99.57,56.2 C 97.17,60.3 95.27,64.6 95.27,65.6 C 95.27,67.3 124.4,77.9 127.1,77.2 C 127.8,76.9 135,74.7 143,72.1 Z"
       id="path3357"
       inkscape:connector-curvature="0"
       sodipodi:nodetypes="cccccccsccccccccccccccsccccccccccccccccccccccccccccscscccsccccsccsccccscccscccccccccccccccccccccccccccsscscccsccsscscccccccsscccsscccssscccccsccsccscccccccccccccsccccccccccccsccscc" />
  </g>
</svg>
