#basketball.svg
<?xml version="1.0" encoding="utf-8"?>
<!-- Generator: Adobe Illustrator 12.0.1, SVG Export Plug-In . SVG Version: 6.00 Build 51448)  -->
<!DOCTYPE svg PUBLIC "-//W3C//DTD SVG 1.1//EN" "http://www.w3.org/Graphics/SVG/1.1/DTD/svg11.dtd" [
	<!ENTITY ns_svg "http://www.w3.org/2000/svg">
	<!ENTITY ns_xlink "http://www.w3.org/1999/xlink">
]>
<svg  version="1.1" id="Layer_1" xmlns="&ns_svg;" xmlns:xlink="&ns_xlink;" width="160.325" height="295.125"
	 viewBox="0 0 160.325 295.125" overflow="visible" enable-background="new 0 0 160.325 295.125" xml:space="preserve">

	<path fill-rule="evenodd" clip-rule="evenodd" d="M90.726,0c1.009,0.43,2.134,0.746,2.88,1.44C93.13,2.344,90.681,1.202,90.726,0z"
		/>
	<path fill-rule="evenodd" clip-rule="evenodd" d="M95.045,0c1.225,0.056,2.47,0.09,2.4,1.44C96.07,1.535,94.825,1.5,95.045,0z"/>
	<path fill-rule="evenodd" clip-rule="evenodd" d="M86.885,0.48c0.07,1.35-1.175,1.384-2.399,1.44
		C84.416,0.57,85.661,0.536,86.885,0.48z"/>
	<path fill-rule="evenodd" clip-rule="evenodd" d="M104.646,2.4c1.564-0.125,2.31,0.57,2.399,1.92
		C105.905,4.02,104.811,3.674,104.646,2.4z"/>
	<path fill-rule="evenodd" clip-rule="evenodd" d="M104.165,5.76c1.849-0.378,1.849,2.298,0,1.92
		C104.165,7.04,104.165,6.4,104.165,5.76z"/>
	<path fill-rule="evenodd" clip-rule="evenodd" d="M94.085,22.56c-1.414-1.855-3.919-0.021-6.24,0c1.243,1.637,5.21,0.55,4.801,3.84
		c-1.231-1.688-3.021-0.365-4.801,0c-2.867-0.333-2.343-4.057-4.32-5.28C85.577,19.475,93.837,19.269,94.085,22.56z"/>
	<path fill-rule="evenodd" clip-rule="evenodd" fill="#FFFFFF" d="M122.405,108c-0.979-4.562-3.046-6.217-1.92-11.52
		c0.948-4.471,7.395-6.665,7.68-10.08c0.298-3.557-5.986-6.279-5.28-12.48c0.306-2.679,2.284-6.43,3.841-8.16
		c1.927-2.142,4.428-2.619,4.319-4.8c-0.127-2.558-3.81-4.085-6.72-3.84c-1.227,0.053-0.953,1.607-0.96,2.88
		c-6.435,3.042-10.784,11.521-7.68,21.12c-9.037-3.522-2.162-18.125,3.84-23.04c1.843-1.509,4.46-1.966,5.279-3.84
		c10.613,1.315,28.414,14.612,19.681,24.48c1.178,5.497-3.34,10.83-5.28,17.28c-1.521,5.055-0.725,10.721-2.4,15.36
		c-1.726,4.777-7.98,15.021-12.96,15.36c-6.806,0.463-11.061-12.562-19.68-11.52c-2.25-2.229-3.794-5.166-7.2-6.24
		c-1.633,0.908,0.822,1.683,0.48,2.88c-9.615-7.505-15.531-18.709-27.36-24c-0.39-5.579,0.023-10.228-4.32-11.52
		c-3.231-0.961-8.174,2.669-10.08-1.44c15.992,2.462,17.298-12.149,4.8-14.88c-1.093,0.97,2.217,1.595,1.92,3.36
		c-3.919,5.376-9.967,11.133-17.28,11.52c5.448-3.671,13.238-5.002,15.36-12c-3.869-1.351-6.553,1.112-9.12,3.36
		c-7.84-3.572-22.119-0.066-31.2-3.36c-1.285-2.488-1.02-5.226,0.96-6.72c12.541-0.109,21.308,0.339,33.6-1.44
		c2.933-3.147,7.112-5.047,7.68-10.56c-0.49-1.49-0.471,1.361-0.96,1.44c-8.339-11.398-26.763-19.111-47.04-13.92
		c4.922-7.018,18.242-10.877,29.76-8.16c12.589,2.969,22.216,14.544,24,27.36c-1.927-0.793-2.522-2.918-4.32-3.84
		c-4.04,2.63,3.828,6.656,0,10.56c-2.368-0.093-6.27-4.79-7.2-0.48c4.136-0.996,9.755,3.271,13.92,5.28
		c-0.446-6.273-5.353-8.087-6.72-13.44c11.509,4.686,10.5,22.23,18.24,32.64c2.02,2.715,4.332,3.568,6.24,6.72
		C99.124,95.441,111.539,100.946,122.405,108z"/>
	<path fill-rule="evenodd" clip-rule="evenodd" d="M107.045,29.28c1.889,0.783-1.044,5.186-2.88,3.84
		c-0.05-1.49,1.51-1.37,0.96-3.36C105.885,29.72,106.956,29.991,107.045,29.28z"/>
	<path fill-rule="evenodd" clip-rule="evenodd" fill="#FFFFFF" d="M3.365,49.92c2.642,0.5,5.81,2.689,8.16,1.92
		c0.601-1.911-0.116-4.397,1.92-5.76c-2.493-1.667-4.809-3.512-6.72-5.76c2.337-4.167,8.279-6.947,12.96-7.68
		c18.081-2.831,33.31,5.558,41.28,13.92c-2.701,8.486-17.87,8.432-31.2,8.16c-5.999-0.122-12.825-0.319-17.28-0.96
		C9.173,53.284,4.695,52.479,3.365,49.92z"/>
	<path fill-rule="evenodd" clip-rule="evenodd" d="M77.765,33.6c2.134-0.215,3.499,0.341,4.8,0.96
		C81.846,36.489,77.852,35.29,77.765,33.6z"/>
	<path fill-rule="evenodd" clip-rule="evenodd" d="M78.245,38.4c1.989,1.147,8.296-0.688,8.16,3.84
		C84.196,39.401,79.153,42.362,78.245,38.4z"/>
	<path fill-rule="evenodd" clip-rule="evenodd" d="M80.165,43.2c0.666-0.942,4.073-0.585,4.8,0
		C84.856,45.993,80.708,44.3,80.165,43.2z"/>
	<path fill-rule="evenodd" clip-rule="evenodd" fill="#FFFFFF" d="M67.685,88.32c-3.38,1.1-4.909,4.051-10.08,3.36
		c-2.841,2.598-4.614,6.266-8.16,8.16c-1.917-2.083-0.358-7.642-1.44-10.56c7.416-2.224,11.119-10.587,18.24-11.52
		C68.83,80.963,67.27,84.529,67.685,88.32z"/>
	<path fill-rule="evenodd" clip-rule="evenodd" fill="#FFFFFF" d="M28.805,90.72c1.719,0.681,4.697,0.103,6.24,0.96
		c-0.956,3.204-3.884,4.436-3.84,8.64C29.568,97.923,28.146,93.959,28.805,90.72z"/>
	<path fill-rule="evenodd" clip-rule="evenodd" fill="#FFFFFF" d="M143.045,177.6c0.507,1.313-2,0.76-2.399,0.96
		c-1.897,0.949-3.466,3.758-5.761,5.76c-6.244,5.447-13.842,10.647-23.52,13.44c-2.483,0.716-6.128,1.361-8.64,2.399
		c-5.793,2.395-10.771,15.256-17.28,5.28c-3.176,3.384-6.482,6.638-7.2,12.479c-3.744,4.089-10.057-0.906-10.56-5.279
		c-0.281-2.443,4.424-12.578,6.72-15.36c4.765-5.774,10.343-8.431,15.84-12c8.506-5.523,12.121-15.65,19.2-18.24
		c0.242-1.507-1.132-1.961,0.479-2.399C124.521,163.172,138.153,169.365,143.045,177.6z"/>
	<path fill-rule="evenodd" clip-rule="evenodd" fill="#FFFFFF" d="M102.726,229.919c-0.67,1.444-2.484-0.997-3.36,0.48
		c-1.3,1.26-0.414,4.706-1.92,5.76c-6.723-0.26-10.307-4.771-11.04-9.6C89.742,219.042,101.98,222.07,102.726,229.919z"/>
	<path fill-rule="evenodd" clip-rule="evenodd" fill="#FFFFFF" d="M106.565,252c-0.877,1.203-0.999,3.161-2.4,3.841
		c-1.456,0.176-0.996-1.564-1.439-2.4c-1.44,1.132-6.623,3.704-7.2,0C100.344,253.739,103.511,246.386,106.565,252z"/>
	<path fill-rule="evenodd" clip-rule="evenodd" fill="#FFFFFF" d="M99.365,262.08c-2.109,2.371-1.472,7.488-3.36,10.08
		c-2.508-0.372-3.354-2.405-5.76-2.88c-0.335-2.095,1.386-2.134,1.44-3.84c2.062,0.017,1.609,2.55,4.319,1.92
		c0.345-3.106-4.852-1.997-2.88-5.28c1.971-0.05,1.922,1.919,4.32,1.44c0.762-2.362-2.48-0.72-1.92-2.88
		C96.706,259.699,98.184,261.535,99.365,262.08z"/>
	<path fill-rule="evenodd" clip-rule="evenodd" fill="#FFFFFF" d="M89.285,269.76c1.938,1.261,3.341,3.059,4.32,5.279
		c-1.99,1.488-3.056-2.048-5.761-1.439c0.403,2.156,2.478,2.643,2.881,4.8c-2.427,0.506-2.746-1.094-4.801-0.96
		c-0.298,2.28,2.441,3.329,0.96,5.28c-2.334-0.065-2.784-2.017-4.8-2.4c-1.794,1.317,1.568,3.125,0,4.32
		c-1.475-0.125-2.159-1.042-3.36-1.44c-1.664,1.308,1.053,4.013-0.48,5.28c-2.228-0.172-3.165-1.635-3.84-3.36
		C80.005,280.639,85.513,276.068,89.285,269.76z"/>
	<path fill-rule="evenodd" clip-rule="evenodd" d="M74.885,59.52c1.784-1.736,3.626-3.414,6.24-4.32
		c-0.648-1.592-3.117-1.362-4.32-2.4c-1.815-3.167-3.125-14.833-2.88-20.64c0.125-2.976,1.627-5.582,1.92-8.16
		c0.474-4.184-0.702-8.525,1.92-11.52c-5.028-3.706-1.914-9.992,4.8-9.6c-0.333,0.387-0.747,1.315,0,1.44
		c0.995,1.345-2.31,1.599-3.36,2.4c5.189,3.239,14.077-0.874,17.28,5.28c-2.38,0.535-4.669-0.204-6.721-0.96
		c-1.254,1.487-5.876,2.712-6.72,0.48c-0.644,0.315-0.894,1.026-0.96,1.92c-1.541,0.421-0.995-1.245-1.92-1.44
		c-0.689,2.35-2.389,3.691-2.88,6.24c2.878,0.963,5.049,4.42,2.88,7.68c-1.66,0.38-2.026-0.534-2.88-0.96
		c-1.648,2.366-1.56,5.519-0.96,8.64c1.595,8.296-2.166,17.954,4.8,19.2c6.929,1.239,11.638-5.856,18.24-6.72
		c-0.959,2.241-3.509,2.891-5.76,3.84c0.604,2.392-1.456,4.054-3.36,5.28c0.022,4.618,4.464,4.816,5.76,8.16
		c0.052,2.452-2.416,2.384-3.359,3.84c0,1.44,0,2.88,0,4.32c16.474,5.504,13.819-16.515,26.399-19.2
		c-1.052-3.108-6.146-2.173-8.16-4.32c12.921,5.193,34.406,5.564,37.92,22.08c0.769,3.608-0.99,7.605-0.96,11.52
		c0.033,4.243,1.844,8.295,1.44,12.48c-0.318,3.299-1.987,6.249-1.92,9.12c0.153,6.495,4.378,15.651,0,21.6
		c-1.477,2.006,0.007-0.651-1.44-0.48c-1.516,0.179-2.917,3.34-5.279,4.32c-4.987,2.068-9.977,0.246-15.36,0.48
		c-3.186,0.138-6.711,1.389-10.08-0.96c1.822,2.526,2.707,5.325,2.4,11.04c8.704,3.377,17.528-6.439,25.92-1.92
		c-0.89,0.582-2.41,4.84-4.32,5.76c-3.339,1.609-7.319-0.668-12-0.96c-5.878-0.367-10.338,2.098-13.92,1.44
		c-5.306-0.975-8.508-7.513-12.48-5.28c1.16,6.84,12.05,3.95,12,12c-6.046,0.067-15.323,2.627-16.319-5.76
		c-3.567-0.207-6.374,0.346-8.16,1.92c2.081,5.649-2.226,6.792-4.32,9.6c4.695,4.721,11.433,10.956,18.24,10.561
		c-0.279-2.756-3.687-6.604-1.92-10.561c-0.536-2.023-2.773-2.347-2.4-5.279c3.412,0.908,6.131,2.51,9.601,3.359
		c0.343,1.304-2.264-0.343-1.92,0.96c9.089,4.747,18.266-10.523,29.279-1.92c-2.204,2.025-5.099-0.369-7.68,0
		c-1.479,0.212-3.536,1.777-5.76,2.88c-4.154,2.061-9.467,2.934-11.04,7.2c12.768-0.816,24.062,1.864,32.16,8.641
		c4.021,3.365,6.688,8.419,12.479,8.64c2.527-8.265,4.797-16.407,1.92-25.44c-1.393,3.088-4.09,4.87-5.76,7.681
		c1.745,3.527,3.023,8.935-1.44,10.56c0.32-1.92,1.191-3.289,1.921-4.8c-3.752-4.179-1.893-10.556,1.92-13.44
		c-1.05-2.547-2.227-5.031-3.841-5.76c3.396-4.931,1.693-9.399-0.96-13.92c3.464,3.085,7.081,8.453,3.36,13.44
		c0.084,1.676,1.104,2.415,2.4,2.88c6.227-9.394-1.851-16.732-6.24-23.521c5.575,4.68,13.426,14.657,7.2,22.561
		c0.355,2.044,1.944,2.855,2.88,4.319c-0.966,4.42,1.143,7.526,1.92,11.521c-2.163,4.133-4.446,12.906-1.92,17.28
		c-2.632,2.596-6.592,0.799-10.08,0.96c-8.698,0.399-14.932,2.577-17.28,9.6c-10.445,5.714-21.593,10.728-32.16,16.32
		c-1.461,2.472-3.392,5.231-1.92,9.12c1.171,3.093,6.737,5.943,8.16,9.6c1.574,4.045-0.736,10.669,0.48,17.28
		c0.438,2.379,3.689,4.87,2.399,8.159c4.42,4.351,7.809,13.083,2.88,19.2c-10.965,3.447-15.689,24.175-33.6,20.641
		c-3.001-0.593-8.534-3.948-7.68-9.601c9.873-6.447,18.63-14.009,23.041-25.92c0.953-0.8,0.61,0.044,1.92,0
		c0.196-1.156-0.877-1.043-0.48-2.399c2.043,0.196,2.034,2.445,4.32,2.399c2.052,0.133,2.446-1.394,3.359-2.399
		c-8.18,1.862-11.24-5.343-14.399-10.08c-3.745,6.643-18.045,16.711-21.12,2.88c1.457-2.614,4.709-3.926,5.76-7.2
		c0.917-2.858,2.296-14.735,0.96-17.28c-4.533-8.633-28.447-6.18-23.52-23.04c0.89-3.044,4.072-6.651,5.76-10.08
		c6.325-12.849,16.048-24.966,26.88-33.119c-13.465,12.454-22.872,28.968-31.68,46.079c0.368,2.673,0.784,5.297,2.4,6.721
		c6.753,0.715,10.667-3.023,9.6-8.641c0.935-3.225,4.509-3.811,6.72-5.76c0.993-4.791,5.574-13.025,9.12-15.84
		c5.307-4.213,14.745-5.567,12.96-16.8c-2.458-2.503-5.616-4.305-8.64-6.24c0.042-0.682,0.08-1.359-0.48-1.44
		c0.757-3.242,4.012-3.988,5.76-6.239c0.377-1.978-0.736-2.464-0.479-4.32c1.262-2.579,3.865-3.814,6.72-4.8
		c4.031-5.249,8.707-9.853,9.601-18.24c-10.946-8.574-18.427-20.614-27.36-31.2c-1.954-0.126-3.257-0.903-4.8-1.44
		c-6.823,4.039-11.722,13.081-20.16,16.32c-2.582,0.991-6.522,1.097-9.6,2.4c-2.772,1.173-4.806,3.753-9.6,1.92
		c-2.334-6.295-5.042-14.272-5.76-20.64C8.485,84.617-5.207,66.152,1.925,44.64c7.284-21.97,37.615-30.335,55.2-16.32
		c6.303,5.024,13.198,14.965,11.52,23.04C70.716,54.089,73.737,55.868,74.885,59.52z M88.325,88.32
		c-1.908-3.151-4.221-4.004-6.24-6.72c-7.74-10.41-6.73-27.954-18.24-32.64c1.367,5.353,6.273,7.167,6.72,13.44
		c-4.165-2.009-9.784-6.275-13.92-5.28c0.931-4.31,4.832,0.387,7.2,0.48c3.828-3.904-4.04-7.93,0-10.56
		c1.798,0.922,2.393,3.047,4.32,3.84c-1.784-12.815-11.411-24.391-24-27.36c-11.518-2.717-24.838,1.143-29.76,8.16
		c20.277-5.191,38.701,2.522,47.04,13.92c0.489-0.079,0.47-2.93,0.96-1.44c-0.568,5.512-4.748,7.413-7.68,10.56
		c-12.292,1.779-21.06,1.331-33.6,1.44c-1.979,1.495-2.245,4.232-0.96,6.72c9.082,3.293,23.36-0.212,31.2,3.36
		c2.567-2.248,5.251-4.711,9.12-3.36c-2.122,6.998-9.912,8.329-15.36,12c7.313-0.387,13.361-6.144,17.28-11.52
		c0.297-1.765-3.013-2.39-1.92-3.36c12.498,2.73,11.191,17.342-4.8,14.88c1.906,4.109,6.849,0.479,10.08,1.44
		c4.343,1.292,3.93,5.941,4.32,11.52c11.83,5.291,17.745,16.495,27.36,24c0.342-1.197-2.113-1.972-0.48-2.88
		c3.406,1.074,4.95,4.01,7.2,6.24c8.619-1.042,12.874,11.983,19.68,11.52c4.979-0.338,11.234-10.583,12.96-15.36
		c1.676-4.639,0.879-10.305,2.4-15.36c1.94-6.451,6.458-11.783,5.28-17.28c8.733-9.868-9.067-23.165-19.681-24.48
		c-0.819,1.875-3.437,2.331-5.279,3.84c-6.002,4.915-12.877,19.518-3.84,23.04c-3.104-9.6,1.245-18.078,7.68-21.12
		c0.007-1.273-0.267-2.827,0.96-2.88c2.91-0.246,6.593,1.282,6.72,3.84c0.108,2.181-2.393,2.658-4.319,4.8
		c-1.557,1.73-3.535,5.481-3.841,8.16c-0.706,6.201,5.578,8.923,5.28,12.48c-0.285,3.416-6.731,5.609-7.68,10.08
		c-1.126,5.303,0.94,6.958,1.92,11.52C111.539,100.946,99.124,95.441,88.325,88.32z M12.485,53.76
		c4.455,0.641,11.281,0.838,17.28,0.96c13.33,0.272,28.499,0.326,31.2-8.16c-7.97-8.362-23.199-16.75-41.28-13.92
		c-4.681,0.732-10.623,3.513-12.96,7.68c1.912,2.249,4.228,4.093,6.72,5.76c-2.036,1.363-1.32,3.849-1.92,5.76
		c-2.35,0.77-5.518-1.419-8.16-1.92C4.695,52.479,9.173,53.284,12.485,53.76z M13.925,74.88c-0.637-0.363-4.412-1.484-3.36-0.48
		C11.841,74.129,13.009,76.375,13.925,74.88z M66.245,77.76c-7.122,0.933-10.824,9.296-18.24,11.52
		c1.082,2.918-0.477,8.478,1.44,10.56c3.546-1.894,5.318-5.562,8.16-8.16c5.171,0.69,6.7-2.261,10.08-3.36
		C67.27,84.529,68.83,80.963,66.245,77.76z M31.205,100.32c-0.044-4.204,2.884-5.436,3.84-8.64c-1.542-0.857-4.521-0.279-6.24-0.96
		C28.146,93.959,29.568,97.923,31.205,100.32z M109.925,164.64c-1.611,0.438-0.237,0.893-0.479,2.399
		c-7.079,2.59-10.694,12.717-19.2,18.24c-5.497,3.569-11.075,6.226-15.84,12c-2.296,2.782-7.001,12.917-6.72,15.36
		c0.503,4.373,6.816,9.368,10.56,5.279c0.718-5.842,4.024-9.096,7.2-12.479c6.51,9.976,11.487-2.886,17.28-5.28
		c2.512-1.038,6.156-1.684,8.64-2.399c9.678-2.793,17.275-7.993,23.52-13.44c2.295-2.002,3.863-4.811,5.761-5.76
		c0.399-0.2,2.906,0.354,2.399-0.96C138.153,169.365,124.521,163.172,109.925,164.64z M86.405,226.56
		c0.733,4.829,4.317,9.34,11.04,9.6c1.506-1.054,0.62-4.5,1.92-5.76c0.876-1.478,2.69,0.964,3.36-0.48
		C101.98,222.07,89.742,219.042,86.405,226.56z M95.525,253.44c0.577,3.704,5.76,1.132,7.2,0c0.443,0.836-0.017,2.576,1.439,2.4
		c1.401-0.68,1.523-2.638,2.4-3.841C103.511,246.386,100.344,253.739,95.525,253.44z M95.525,260.64
		c-0.561,2.16,2.682,0.518,1.92,2.88c-2.398,0.479-2.35-1.49-4.32-1.44c-1.972,3.283,3.225,2.174,2.88,5.28
		c-2.71,0.63-2.257-1.903-4.319-1.92c-0.055,1.706-1.775,1.745-1.44,3.84c2.405,0.475,3.252,2.508,5.76,2.88
		c1.889-2.592,1.251-7.709,3.36-10.08C98.184,261.535,96.706,259.699,95.525,260.64z M74.405,285.12
		c0.675,1.726,1.612,3.188,3.84,3.36c1.533-1.268-1.184-3.973,0.48-5.28c1.201,0.398,1.885,1.315,3.36,1.44
		c1.568-1.195-1.794-3.003,0-4.32c2.016,0.384,2.465,2.335,4.8,2.4c1.481-1.951-1.258-3-0.96-5.28
		c2.055-0.134,2.374,1.466,4.801,0.96c-0.403-2.157-2.478-2.644-2.881-4.8c2.705-0.608,3.771,2.928,5.761,1.439
		c-0.979-2.221-2.382-4.019-4.32-5.279C85.513,276.068,80.005,280.639,74.405,285.12z"/>
	<path fill-rule="evenodd" clip-rule="evenodd" fill="#FFFFFF" d="M10.565,74.4c-1.052-1.004,2.723,0.117,3.36,0.48
		C13.009,76.375,11.841,74.129,10.565,74.4z"/>
	<path fill-rule="evenodd" clip-rule="evenodd" d="M96.485,12c2.013-0.176,0.343,1.563,0.479,2.4c1.429-1.132,2.422-2.698,3.36-4.32
		c3.646,0.446,5.792-0.608,6.24-3.36c1.51-0.23,1.876,0.684,2.88,0.96c0.651-0.149,0.398-1.202,0.479-1.92
		c10.915,8.08,4.991,29.264-2.399,36.48c-0.296,2.056,1.562,1.957,1.439,3.84c-3.432-1.208-2.961-6.319-6.239-7.68
		c4.146-0.118,9.503-8.539,4.319-12.48c-2.646,0.234-2.309,3.451-3.84,4.8c-0.96,0-1.92,0-2.88,0
		c0.506-3.141-0.104-5.124,1.439-7.68c-0.484-0.795-2.038-0.521-2.88-0.96C99.041,17.899,94.244,16.737,96.485,12z"/>
</svg>
