G04 DipTrace 2.4.0.2*
%INBottom.gbr*%
%MOMM*%
%ADD13C,0.33*%
%ADD14C,2.0*%
%ADD15C,1.0*%
%ADD16C,1.5*%
%ADD17C,0.635*%
%ADD19R,1.7X1.7*%
%ADD20C,1.7*%
%ADD21R,1.5X1.5*%
%ADD24C,1.5*%
%ADD27R,1.35X1.35*%
%ADD28C,1.35*%
%ADD29C,1.016*%
%FSLAX53Y53*%
G04*
G71*
G90*
G75*
G01*
%LNBottom*%
%LPD*%
X45400Y26900D2*
D14*
Y33600D1*
X31307D1*
Y24400D1*
X27220D1*
D13*
Y24500D1*
Y21960D2*
X19600D1*
Y24500D1*
X27220D1*
Y21960D2*
Y24500D1*
X45400Y26900D2*
Y20000D1*
X45800Y19600D1*
X47500D1*
Y18600D1*
X49740D1*
X49800Y18660D1*
X14900Y17000D2*
D15*
Y14400D1*
D13*
X14800Y14300D1*
X47300Y25400D2*
D15*
Y36600D1*
X27100D1*
Y32240D1*
D13*
X27220Y32120D1*
X47300Y25400D2*
D15*
Y21400D1*
X49800D1*
D13*
Y21200D1*
X11200Y27500D2*
D14*
Y35800D1*
D16*
X24000D1*
Y27040D1*
X27220D1*
X19600Y19420D2*
X16400D1*
Y22420D1*
X11200D1*
X19600Y27040D2*
X17140D1*
X15200Y25100D1*
X11340D1*
D13*
X11200Y24960D1*
X39020Y12700D2*
Y15820D1*
X39100Y15900D1*
X35400D1*
Y30800D1*
X35600Y31000D1*
X27220Y19420D2*
D16*
X23700D1*
Y11300D1*
X11200D1*
Y19880D1*
X17340Y14300D2*
D14*
X19560D1*
D13*
X19600Y14340D1*
X17340Y14300D2*
D15*
Y16940D1*
D13*
X17400Y17000D1*
D29*
X47300Y25400D3*
X45400Y26900D3*
X20016Y23551D2*
D17*
X27023D1*
X20036Y22919D2*
X27023D1*
X20065Y22287D2*
X27023D1*
X19931Y23986D2*
X20017Y22218D1*
X27082D1*
Y24073D1*
X24447Y24045D1*
X19933Y23987D1*
D19*
X49680Y27320D3*
D20*
Y29860D3*
Y32400D3*
Y34940D3*
D19*
X49800Y21200D3*
D20*
Y18660D3*
Y16120D3*
Y13580D3*
D19*
X44100Y12700D3*
D20*
X41560D3*
X39020D3*
X36480D3*
D21*
X35600Y31000D3*
X44000Y17700D3*
D19*
X14800Y14300D3*
D20*
X17340D3*
D19*
X11200Y27500D3*
D20*
Y24960D3*
Y22420D3*
Y19880D3*
D21*
X19600Y32120D3*
D24*
Y29580D3*
Y27040D3*
Y24500D3*
Y21960D3*
Y19420D3*
Y16880D3*
Y14340D3*
X27220D3*
Y16880D3*
Y19420D3*
Y21960D3*
Y24500D3*
Y27040D3*
Y29580D3*
Y32120D3*
D27*
X17400Y17000D3*
D28*
X14900D3*
M02*
